%TF.GenerationSoftware,KiCad,Pcbnew,(7.0.0)*%
%TF.CreationDate,2023-08-24T19:00:58+02:00*%
%TF.ProjectId,QAZISOKLEWTFBBQ,51415a49-534f-44b4-9c45-575446424251,rev?*%
%TF.SameCoordinates,Original*%
%TF.FileFunction,Copper,L2,Bot*%
%TF.FilePolarity,Positive*%
%FSLAX46Y46*%
G04 Gerber Fmt 4.6, Leading zero omitted, Abs format (unit mm)*
G04 Created by KiCad (PCBNEW (7.0.0)) date 2023-08-24 19:00:58*
%MOMM*%
%LPD*%
G01*
G04 APERTURE LIST*
%TA.AperFunction,ComponentPad*%
%ADD10C,2.300000*%
%TD*%
%TA.AperFunction,SMDPad,CuDef*%
%ADD11R,1.600000X1.200000*%
%TD*%
%TA.AperFunction,SMDPad,CuDef*%
%ADD12R,2.900000X0.500000*%
%TD*%
%TA.AperFunction,ComponentPad*%
%ADD13R,1.600000X1.600000*%
%TD*%
%TA.AperFunction,ComponentPad*%
%ADD14C,1.600000*%
%TD*%
%TA.AperFunction,SMDPad,CuDef*%
%ADD15R,1.200000X1.600000*%
%TD*%
%TA.AperFunction,SMDPad,CuDef*%
%ADD16R,0.500000X2.900000*%
%TD*%
%TA.AperFunction,WasherPad*%
%ADD17O,2.000000X3.200000*%
%TD*%
%TA.AperFunction,ComponentPad*%
%ADD18R,2.000000X2.000000*%
%TD*%
%TA.AperFunction,ComponentPad*%
%ADD19C,2.000000*%
%TD*%
%TA.AperFunction,ComponentPad*%
%ADD20O,2.500000X1.500000*%
%TD*%
%TA.AperFunction,ComponentPad*%
%ADD21O,1.500000X2.500000*%
%TD*%
%TA.AperFunction,Conductor*%
%ADD22C,0.250000*%
%TD*%
G04 APERTURE END LIST*
D10*
%TO.P,MX10,1,1*%
%TO.N,COL9*%
X208121250Y-30797500D03*
%TO.P,MX10,2,2*%
%TO.N,Net-(D10-A)*%
X214471250Y-28257500D03*
%TD*%
D11*
%TO.P,D35,1,K*%
%TO.N,ROW3*%
X214499999Y-78581249D03*
D12*
X213399999Y-78581249D03*
D13*
X211999999Y-78581249D03*
D14*
%TO.P,D35,2,A*%
%TO.N,Net-(D35-A)*%
X219800000Y-78581250D03*
D12*
X218399999Y-78581249D03*
D11*
X217299999Y-78581249D03*
%TD*%
D15*
%TO.P,D12,1,K*%
%TO.N,ROW1*%
X65087499Y-53787499D03*
D16*
X65087499Y-54887499D03*
D13*
X65087499Y-56287499D03*
D14*
%TO.P,D12,2,A*%
%TO.N,Net-(D12-A)*%
X65087500Y-48487500D03*
D16*
X65087499Y-49887499D03*
D15*
X65087499Y-50987499D03*
%TD*%
D10*
%TO.P,MX18,1,1*%
%TO.N,COL7*%
X167640000Y-49847500D03*
%TO.P,MX18,2,2*%
%TO.N,Net-(D18-A)*%
X173990000Y-47307500D03*
%TD*%
D15*
%TO.P,D30,1,K*%
%TO.N,ROW3*%
X76993749Y-91887499D03*
D16*
X76993749Y-92987499D03*
D13*
X76993749Y-94387499D03*
D14*
%TO.P,D30,2,A*%
%TO.N,Net-(D30-A)*%
X76993750Y-86587500D03*
D16*
X76993749Y-87987499D03*
D15*
X76993749Y-89087499D03*
%TD*%
%TO.P,D27,1,K*%
%TO.N,ROW2*%
X165099999Y-72837499D03*
D16*
X165099999Y-73937499D03*
D13*
X165099999Y-75337499D03*
D14*
%TO.P,D27,2,A*%
%TO.N,Net-(D27-A)*%
X165100000Y-67537500D03*
D16*
X165099999Y-68937499D03*
D15*
X165099999Y-70037499D03*
%TD*%
D10*
%TO.P,MX19,1,1*%
%TO.N,COL8*%
X186690000Y-49847500D03*
%TO.P,MX19,2,2*%
%TO.N,Net-(D19-A)*%
X193040000Y-47307500D03*
%TD*%
D15*
%TO.P,D32,1,K*%
%TO.N,ROW3*%
X153193749Y-91887499D03*
D16*
X153193749Y-92987499D03*
D13*
X153193749Y-94387499D03*
D14*
%TO.P,D32,2,A*%
%TO.N,Net-(D32-A)*%
X153193750Y-86587500D03*
D16*
X153193749Y-87987499D03*
D15*
X153193749Y-89087499D03*
%TD*%
D10*
%TO.P,MX27,1,1*%
%TO.N,COL6*%
X153352500Y-68897500D03*
%TO.P,MX27,2,2*%
%TO.N,Net-(D27-A)*%
X159702500Y-66357500D03*
%TD*%
D15*
%TO.P,D16,1,K*%
%TO.N,ROW1*%
X141287499Y-53856249D03*
D16*
X141287499Y-54956249D03*
D13*
X141287499Y-56356249D03*
D14*
%TO.P,D16,2,A*%
%TO.N,Net-(D16-A)*%
X141287500Y-48556250D03*
D16*
X141287499Y-49956249D03*
D15*
X141287499Y-51056249D03*
%TD*%
D10*
%TO.P,MX23,1,1*%
%TO.N,COL2*%
X77152500Y-68897500D03*
%TO.P,MX23,2,2*%
%TO.N,Net-(D23-A)*%
X83502500Y-66357500D03*
%TD*%
D15*
%TO.P,D21,1,K*%
%TO.N,ROW2*%
X46037499Y-72837499D03*
D16*
X46037499Y-73937499D03*
D13*
X46037499Y-75337499D03*
D14*
%TO.P,D21,2,A*%
%TO.N,Net-(D21-A)*%
X46037500Y-67537500D03*
D16*
X46037499Y-68937499D03*
D15*
X46037499Y-70037499D03*
%TD*%
D17*
%TO.P,SW1,*%
%TO.N,*%
X227056249Y-33337499D03*
X215856249Y-33337499D03*
D18*
%TO.P,SW1,A,A*%
%TO.N,ROTARY_A*%
X223956249Y-25837499D03*
D19*
%TO.P,SW1,B,B*%
%TO.N,ROTARY_B*%
X218956250Y-25837500D03*
%TO.P,SW1,C,C*%
%TO.N,GND*%
X221456250Y-25837500D03*
%TO.P,SW1,S1,S1*%
%TO.N,Net-(D34-A)*%
X218956250Y-40337500D03*
%TO.P,SW1,S2,S2*%
%TO.N,COL9*%
X223956250Y-40337500D03*
%TD*%
D10*
%TO.P,MX16,1,1*%
%TO.N,COL5*%
X129540000Y-49847500D03*
%TO.P,MX16,2,2*%
%TO.N,Net-(D16-A)*%
X135890000Y-47307500D03*
%TD*%
%TO.P,MX20,1,1*%
%TO.N,COL9*%
X212883750Y-59372500D03*
%TO.P,MX20,2,2*%
%TO.N,Net-(D20-A)*%
X219233750Y-56832500D03*
%TD*%
D15*
%TO.P,D33,1,K*%
%TO.N,ROW3*%
X191293749Y-91887499D03*
D16*
X191293749Y-92987499D03*
D13*
X191293749Y-94387499D03*
D14*
%TO.P,D33,2,A*%
%TO.N,Net-(D33-A)*%
X191293750Y-86587500D03*
D16*
X191293749Y-87987499D03*
D15*
X191293749Y-89087499D03*
%TD*%
D11*
%TO.P,D34,1,K*%
%TO.N,ROW2*%
X222856249Y-42862499D03*
D12*
X223956249Y-42862499D03*
D13*
X225356249Y-42862499D03*
D14*
%TO.P,D34,2,A*%
%TO.N,Net-(D34-A)*%
X217556250Y-42862500D03*
D12*
X218956249Y-42862499D03*
D11*
X220056249Y-42862499D03*
%TD*%
D15*
%TO.P,D28,1,K*%
%TO.N,ROW2*%
X184149999Y-72837499D03*
D16*
X184149999Y-73937499D03*
D13*
X184149999Y-75337499D03*
D14*
%TO.P,D28,2,A*%
%TO.N,Net-(D28-A)*%
X184150000Y-67537500D03*
D16*
X184149999Y-68937499D03*
D15*
X184149999Y-70037499D03*
%TD*%
D10*
%TO.P,MX29,1,1*%
%TO.N,COL8*%
X191452500Y-68897500D03*
%TO.P,MX29,2,2*%
%TO.N,Net-(D29-A)*%
X197802500Y-66357500D03*
%TD*%
%TO.P,MX32,1,1*%
%TO.N,COL5*%
X141446250Y-87947500D03*
%TO.P,MX32,2,2*%
%TO.N,Net-(D32-A)*%
X147796250Y-85407500D03*
%TD*%
D15*
%TO.P,D31,1,K*%
%TO.N,ROW3*%
X107949999Y-91887499D03*
D16*
X107949999Y-92987499D03*
D13*
X107949999Y-94387499D03*
D14*
%TO.P,D31,2,A*%
%TO.N,Net-(D31-A)*%
X107950000Y-86587500D03*
D16*
X107949999Y-87987499D03*
D15*
X107949999Y-89087499D03*
%TD*%
D10*
%TO.P,MX4,1,1*%
%TO.N,COL3*%
X86677500Y-30797500D03*
%TO.P,MX4,2,2*%
%TO.N,Net-(D4-A)*%
X93027500Y-28257500D03*
%TD*%
D15*
%TO.P,D17,1,K*%
%TO.N,ROW1*%
X160337499Y-53787499D03*
D16*
X160337499Y-54887499D03*
D13*
X160337499Y-56287499D03*
D14*
%TO.P,D17,2,A*%
%TO.N,Net-(D17-A)*%
X160337500Y-48487500D03*
D16*
X160337499Y-49887499D03*
D15*
X160337499Y-50987499D03*
%TD*%
D10*
%TO.P,MX36,1,1*%
%TO.N,COL5*%
X134302500Y-87947500D03*
%TO.P,MX36,2,2*%
%TO.N,Net-(D32-A)*%
X140652500Y-85407500D03*
%TD*%
%TO.P,MX31,1,1*%
%TO.N,COL3*%
X96202500Y-87947500D03*
%TO.P,MX31,2,2*%
%TO.N,Net-(D31-A)*%
X102552500Y-85407500D03*
%TD*%
D15*
%TO.P,D6,1,K*%
%TO.N,ROW0*%
X136524999Y-34737499D03*
D16*
X136524999Y-35837499D03*
D13*
X136524999Y-37237499D03*
D14*
%TO.P,D6,2,A*%
%TO.N,Net-(D6-A)*%
X136525000Y-29437500D03*
D16*
X136524999Y-30837499D03*
D15*
X136524999Y-31937499D03*
%TD*%
%TO.P,D9,1,K*%
%TO.N,ROW0*%
X193674999Y-34737499D03*
D16*
X193674999Y-35837499D03*
D13*
X193674999Y-37237499D03*
D14*
%TO.P,D9,2,A*%
%TO.N,Net-(D9-A)*%
X193675000Y-29437500D03*
D16*
X193674999Y-30837499D03*
D15*
X193674999Y-31937499D03*
%TD*%
%TO.P,D26,1,K*%
%TO.N,ROW2*%
X146049999Y-72837499D03*
D16*
X146049999Y-73937499D03*
D13*
X146049999Y-75337499D03*
D14*
%TO.P,D26,2,A*%
%TO.N,Net-(D26-A)*%
X146050000Y-67537500D03*
D16*
X146049999Y-68937499D03*
D15*
X146049999Y-70037499D03*
%TD*%
D10*
%TO.P,MX14,1,1*%
%TO.N,COL3*%
X91440000Y-49847500D03*
%TO.P,MX14,2,2*%
%TO.N,Net-(D14-A)*%
X97790000Y-47307500D03*
%TD*%
D15*
%TO.P,D20,1,K*%
%TO.N,ROW1*%
X224631249Y-63312499D03*
D16*
X224631249Y-64412499D03*
D13*
X224631249Y-65812499D03*
D14*
%TO.P,D20,2,A*%
%TO.N,Net-(D20-A)*%
X224631250Y-58012500D03*
D16*
X224631249Y-59412499D03*
D15*
X224631249Y-60512499D03*
%TD*%
D10*
%TO.P,MX13,1,1*%
%TO.N,COL2*%
X72390000Y-49847500D03*
%TO.P,MX13,2,2*%
%TO.N,Net-(D13-A)*%
X78740000Y-47307500D03*
%TD*%
D15*
%TO.P,D23,1,K*%
%TO.N,ROW2*%
X88899999Y-72837499D03*
D16*
X88899999Y-73937499D03*
D13*
X88899999Y-75337499D03*
D14*
%TO.P,D23,2,A*%
%TO.N,Net-(D23-A)*%
X88900000Y-67537500D03*
D16*
X88899999Y-68937499D03*
D15*
X88899999Y-70037499D03*
%TD*%
%TO.P,D18,1,K*%
%TO.N,ROW1*%
X179387499Y-53787499D03*
D16*
X179387499Y-54887499D03*
D13*
X179387499Y-56287499D03*
D14*
%TO.P,D18,2,A*%
%TO.N,Net-(D18-A)*%
X179387500Y-48487500D03*
D16*
X179387499Y-49887499D03*
D15*
X179387499Y-50987499D03*
%TD*%
D10*
%TO.P,MX30,1,1*%
%TO.N,COL1*%
X65246250Y-87947500D03*
%TO.P,MX30,2,2*%
%TO.N,Net-(D30-A)*%
X71596250Y-85407500D03*
%TD*%
%TO.P,MX15,1,1*%
%TO.N,COL4*%
X110490000Y-49847500D03*
%TO.P,MX15,2,2*%
%TO.N,Net-(D15-A)*%
X116840000Y-47307500D03*
%TD*%
D15*
%TO.P,D5,1,K*%
%TO.N,ROW0*%
X120649999Y-34737499D03*
D16*
X120649999Y-35837499D03*
D13*
X120649999Y-37237499D03*
D14*
%TO.P,D5,2,A*%
%TO.N,Net-(D5-A)*%
X120650000Y-29437500D03*
D16*
X120649999Y-30837499D03*
D15*
X120649999Y-31937499D03*
%TD*%
D10*
%TO.P,MX22,1,1*%
%TO.N,COL1*%
X58102500Y-68897500D03*
%TO.P,MX22,2,2*%
%TO.N,Net-(D22-A)*%
X64452500Y-66357500D03*
%TD*%
%TO.P,MX3,1,1*%
%TO.N,COL2*%
X67627500Y-30797500D03*
%TO.P,MX3,2,2*%
%TO.N,Net-(D3-A)*%
X73977500Y-28257500D03*
%TD*%
D15*
%TO.P,D24,1,K*%
%TO.N,ROW2*%
X107949999Y-72837499D03*
D16*
X107949999Y-73937499D03*
D13*
X107949999Y-75337499D03*
D14*
%TO.P,D24,2,A*%
%TO.N,Net-(D24-A)*%
X107950000Y-67537500D03*
D16*
X107949999Y-68937499D03*
D15*
X107949999Y-70037499D03*
%TD*%
%TO.P,D4,1,K*%
%TO.N,ROW0*%
X98424999Y-34737499D03*
D16*
X98424999Y-35837499D03*
D13*
X98424999Y-37237499D03*
D14*
%TO.P,D4,2,A*%
%TO.N,Net-(D4-A)*%
X98425000Y-29437500D03*
D16*
X98424999Y-30837499D03*
D15*
X98424999Y-31937499D03*
%TD*%
D10*
%TO.P,MX12,1,1*%
%TO.N,COL1*%
X53340000Y-49847500D03*
%TO.P,MX12,2,2*%
%TO.N,Net-(D12-A)*%
X59690000Y-47307500D03*
%TD*%
D15*
%TO.P,D11,1,K*%
%TO.N,ROW1*%
X43656249Y-53787499D03*
D16*
X43656249Y-54887499D03*
D13*
X43656249Y-56287499D03*
D14*
%TO.P,D11,2,A*%
%TO.N,Net-(D11-A)*%
X43656250Y-48487500D03*
D16*
X43656249Y-49887499D03*
D15*
X43656249Y-50987499D03*
%TD*%
D10*
%TO.P,MX1,1,1*%
%TO.N,COL0*%
X29527500Y-30797500D03*
%TO.P,MX1,2,2*%
%TO.N,Net-(D1-A)*%
X35877500Y-28257500D03*
%TD*%
%TO.P,MX17,1,1*%
%TO.N,COL6*%
X148590000Y-49847500D03*
%TO.P,MX17,2,2*%
%TO.N,Net-(D17-A)*%
X154940000Y-47307500D03*
%TD*%
D15*
%TO.P,D19,1,K*%
%TO.N,ROW1*%
X198437499Y-53974999D03*
D16*
X198437499Y-55074999D03*
D13*
X198437499Y-56474999D03*
D14*
%TO.P,D19,2,A*%
%TO.N,Net-(D19-A)*%
X198437500Y-48675000D03*
D16*
X198437499Y-50074999D03*
D15*
X198437499Y-51174999D03*
%TD*%
D10*
%TO.P,MX37,1,1*%
%TO.N,COL8*%
X212883750Y-68897500D03*
%TO.P,MX37,2,2*%
%TO.N,Net-(D35-A)*%
X219233750Y-66357500D03*
%TD*%
D15*
%TO.P,D8,1,K*%
%TO.N,ROW0*%
X174624999Y-34737499D03*
D16*
X174624999Y-35837499D03*
D13*
X174624999Y-37237499D03*
D14*
%TO.P,D8,2,A*%
%TO.N,Net-(D8-A)*%
X174625000Y-29437500D03*
D16*
X174624999Y-30837499D03*
D15*
X174624999Y-31937499D03*
%TD*%
D10*
%TO.P,MX2,1,1*%
%TO.N,COL1*%
X48577500Y-30797500D03*
%TO.P,MX2,2,2*%
%TO.N,Net-(D2-A)*%
X54927500Y-28257500D03*
%TD*%
%TO.P,MX35,1,1*%
%TO.N,COL9*%
X210502500Y-49847500D03*
%TO.P,MX35,2,2*%
%TO.N,Net-(D20-A)*%
X216852500Y-47307500D03*
%TD*%
%TO.P,MX11,1,1*%
%TO.N,COL0*%
X31908750Y-49847500D03*
%TO.P,MX11,2,2*%
%TO.N,Net-(D11-A)*%
X38258750Y-47307500D03*
%TD*%
%TO.P,MX24,1,1*%
%TO.N,COL3*%
X96202500Y-68897500D03*
%TO.P,MX24,2,2*%
%TO.N,Net-(D24-A)*%
X102552500Y-66357500D03*
%TD*%
D15*
%TO.P,D29,1,K*%
%TO.N,ROW2*%
X203199999Y-72837499D03*
D16*
X203199999Y-73937499D03*
D13*
X203199999Y-75337499D03*
D14*
%TO.P,D29,2,A*%
%TO.N,Net-(D29-A)*%
X203200000Y-67537500D03*
D16*
X203199999Y-68937499D03*
D15*
X203199999Y-70037499D03*
%TD*%
%TO.P,D15,1,K*%
%TO.N,ROW1*%
X122237499Y-53787499D03*
D16*
X122237499Y-54887499D03*
D13*
X122237499Y-56287499D03*
D14*
%TO.P,D15,2,A*%
%TO.N,Net-(D15-A)*%
X122237500Y-48487500D03*
D16*
X122237499Y-49887499D03*
D15*
X122237499Y-50987499D03*
%TD*%
D10*
%TO.P,MX25,1,1*%
%TO.N,COL4*%
X115252500Y-68897500D03*
%TO.P,MX25,2,2*%
%TO.N,Net-(D25-A)*%
X121602500Y-66357500D03*
%TD*%
%TO.P,MX9,1,1*%
%TO.N,COL8*%
X181927500Y-30797500D03*
%TO.P,MX9,2,2*%
%TO.N,Net-(D9-A)*%
X188277500Y-28257500D03*
%TD*%
%TO.P,MX5,1,1*%
%TO.N,COL4*%
X105727500Y-30797500D03*
%TO.P,MX5,2,2*%
%TO.N,Net-(D5-A)*%
X112077500Y-28257500D03*
%TD*%
%TO.P,MX26,1,1*%
%TO.N,COL5*%
X134302500Y-68897500D03*
%TO.P,MX26,2,2*%
%TO.N,Net-(D26-A)*%
X140652500Y-66357500D03*
%TD*%
%TO.P,MX7,1,1*%
%TO.N,COL6*%
X143827500Y-30797500D03*
%TO.P,MX7,2,2*%
%TO.N,Net-(D7-A)*%
X150177500Y-28257500D03*
%TD*%
D15*
%TO.P,D25,1,K*%
%TO.N,ROW2*%
X126999999Y-72837499D03*
D16*
X126999999Y-73937499D03*
D13*
X126999999Y-75337499D03*
D14*
%TO.P,D25,2,A*%
%TO.N,Net-(D25-A)*%
X127000000Y-67537500D03*
D16*
X126999999Y-68937499D03*
D15*
X126999999Y-70037499D03*
%TD*%
D10*
%TO.P,MX33,1,1*%
%TO.N,COL7*%
X179546250Y-87947500D03*
%TO.P,MX33,2,2*%
%TO.N,Net-(D33-A)*%
X185896250Y-85407500D03*
%TD*%
D15*
%TO.P,D22,1,K*%
%TO.N,ROW2*%
X69849999Y-72837499D03*
D16*
X69849999Y-73937499D03*
D13*
X69849999Y-75337499D03*
D14*
%TO.P,D22,2,A*%
%TO.N,Net-(D22-A)*%
X69850000Y-67537500D03*
D16*
X69849999Y-68937499D03*
D15*
X69849999Y-70037499D03*
%TD*%
D10*
%TO.P,MX28,1,1*%
%TO.N,COL7*%
X172402500Y-68897500D03*
%TO.P,MX28,2,2*%
%TO.N,Net-(D28-A)*%
X178752500Y-66357500D03*
%TD*%
D15*
%TO.P,D14,1,K*%
%TO.N,ROW1*%
X103187499Y-53787499D03*
D16*
X103187499Y-54887499D03*
D13*
X103187499Y-56287499D03*
D14*
%TO.P,D14,2,A*%
%TO.N,Net-(D14-A)*%
X103187500Y-48487500D03*
D16*
X103187499Y-49887499D03*
D15*
X103187499Y-50987499D03*
%TD*%
D10*
%TO.P,MX21,1,1*%
%TO.N,COL0*%
X34290000Y-68897500D03*
%TO.P,MX21,2,2*%
%TO.N,Net-(D21-A)*%
X40640000Y-66357500D03*
%TD*%
D15*
%TO.P,D2,1,K*%
%TO.N,ROW0*%
X60324999Y-34737499D03*
D16*
X60324999Y-35837499D03*
D13*
X60324999Y-37237499D03*
D14*
%TO.P,D2,2,A*%
%TO.N,Net-(D2-A)*%
X60325000Y-29437500D03*
D16*
X60324999Y-30837499D03*
D15*
X60324999Y-31937499D03*
%TD*%
D10*
%TO.P,MX34,1,1*%
%TO.N,COL9*%
X200977500Y-30797500D03*
%TO.P,MX34,2,2*%
%TO.N,Net-(D10-A)*%
X207327500Y-28257500D03*
%TD*%
%TO.P,MX8,1,1*%
%TO.N,COL7*%
X162877500Y-30797500D03*
%TO.P,MX8,2,2*%
%TO.N,Net-(D8-A)*%
X169227500Y-28257500D03*
%TD*%
D15*
%TO.P,D1,1,K*%
%TO.N,ROW0*%
X41274999Y-34737499D03*
D16*
X41274999Y-35837499D03*
D13*
X41274999Y-37237499D03*
D14*
%TO.P,D1,2,A*%
%TO.N,Net-(D1-A)*%
X41275000Y-29437500D03*
D16*
X41274999Y-30837499D03*
D15*
X41274999Y-31937499D03*
%TD*%
%TO.P,D10,1,K*%
%TO.N,ROW0*%
X196849999Y-34737499D03*
D16*
X196849999Y-35837499D03*
D13*
X196849999Y-37237499D03*
D14*
%TO.P,D10,2,A*%
%TO.N,Net-(D10-A)*%
X196850000Y-29437500D03*
D16*
X196849999Y-30837499D03*
D15*
X196849999Y-31937499D03*
%TD*%
%TO.P,D7,1,K*%
%TO.N,ROW0*%
X155574999Y-34737499D03*
D16*
X155574999Y-35837499D03*
D13*
X155574999Y-37237499D03*
D14*
%TO.P,D7,2,A*%
%TO.N,Net-(D7-A)*%
X155575000Y-29437500D03*
D16*
X155574999Y-30837499D03*
D15*
X155574999Y-31937499D03*
%TD*%
%TO.P,D3,1,K*%
%TO.N,ROW0*%
X79374999Y-34737499D03*
D16*
X79374999Y-35837499D03*
D13*
X79374999Y-37237499D03*
D14*
%TO.P,D3,2,A*%
%TO.N,Net-(D3-A)*%
X79375000Y-29437500D03*
D16*
X79374999Y-30837499D03*
D15*
X79374999Y-31937499D03*
%TD*%
D10*
%TO.P,MX6,1,1*%
%TO.N,COL5*%
X124777500Y-30797500D03*
%TO.P,MX6,2,2*%
%TO.N,Net-(D6-A)*%
X131127500Y-28257500D03*
%TD*%
D15*
%TO.P,D13,1,K*%
%TO.N,ROW1*%
X84137499Y-53787499D03*
D16*
X84137499Y-54887499D03*
D13*
X84137499Y-56287499D03*
D14*
%TO.P,D13,2,A*%
%TO.N,Net-(D13-A)*%
X84137500Y-48487500D03*
D16*
X84137499Y-49887499D03*
D15*
X84137499Y-50987499D03*
%TD*%
D20*
%TO.P,RZ1,1,GP0*%
%TO.N,ROTARY_A*%
X101417499Y-23177499D03*
%TO.P,RZ1,2,GP1*%
%TO.N,ROTARY_B*%
X101417499Y-25717499D03*
%TO.P,RZ1,3,GP2*%
%TO.N,unconnected-(RZ1-GP2-Pad3)*%
X101417499Y-28257499D03*
%TO.P,RZ1,4,GP3*%
%TO.N,unconnected-(RZ1-GP3-Pad4)*%
X101417499Y-30797499D03*
%TO.P,RZ1,5,GP4*%
%TO.N,COL8*%
X101417499Y-33337499D03*
%TO.P,RZ1,6,GP5*%
%TO.N,ROW0*%
X101417499Y-35877499D03*
%TO.P,RZ1,7,GP6*%
%TO.N,ROW3*%
X101417499Y-38417499D03*
%TO.P,RZ1,8,GP7*%
%TO.N,COL0*%
X101417499Y-40957499D03*
%TO.P,RZ1,9,GP8*%
%TO.N,COL1*%
X101417499Y-43497499D03*
D21*
%TO.P,RZ1,10,GP9*%
%TO.N,COL2*%
X104457499Y-43997499D03*
%TO.P,RZ1,11,GP10*%
%TO.N,COL3*%
X106997499Y-43997499D03*
%TO.P,RZ1,12,GP11*%
%TO.N,COL4*%
X109537499Y-43997499D03*
%TO.P,RZ1,13,GP12*%
%TO.N,COL5*%
X112077499Y-43997499D03*
%TO.P,RZ1,14,GP13*%
%TO.N,COL6*%
X114617499Y-43997499D03*
D20*
%TO.P,RZ1,15,GP14*%
%TO.N,COL7*%
X117657499Y-43497499D03*
%TO.P,RZ1,16,GP15*%
%TO.N,COL9*%
X117657499Y-40957499D03*
%TO.P,RZ1,17,GP26*%
%TO.N,ROW2*%
X117657499Y-38417499D03*
%TO.P,RZ1,18,GP27*%
%TO.N,ROW1*%
X117657499Y-35877499D03*
%TO.P,RZ1,19,GP28*%
%TO.N,unconnected-(RZ1-GP28-Pad19)*%
X117657499Y-33337499D03*
%TO.P,RZ1,20,GP29*%
%TO.N,unconnected-(RZ1-GP29-Pad20)*%
X117657499Y-30797499D03*
%TO.P,RZ1,21,3V3*%
%TO.N,+3V3*%
X117657499Y-28257499D03*
%TO.P,RZ1,22,5V*%
%TO.N,+5V*%
X117657499Y-25717499D03*
%TO.P,RZ1,23,GND*%
%TO.N,GND*%
X117657499Y-23177499D03*
%TD*%
D22*
%TO.N,Net-(D1-A)*%
X35877500Y-28257500D02*
X40095000Y-28257500D01*
X40095000Y-28257500D02*
X41275000Y-29437500D01*
%TO.N,ROW0*%
X120127500Y-37237500D02*
X120650000Y-37237500D01*
X112256250Y-32087500D02*
X118606250Y-32087500D01*
X94264720Y-43550000D02*
X101917500Y-35897220D01*
X119232500Y-32713750D02*
X119232500Y-36342500D01*
X28643750Y-37237500D02*
X27781250Y-38100000D01*
X41275000Y-37237500D02*
X98425000Y-37237500D01*
X100667220Y-26987500D02*
X109537500Y-26987500D01*
X196850000Y-37237500D02*
X120650000Y-37237500D01*
X28468750Y-43550000D02*
X94264720Y-43550000D01*
X41275000Y-37237500D02*
X28643750Y-37237500D01*
X99842500Y-35820000D02*
X99842500Y-27812220D01*
X98425000Y-37237500D02*
X99842500Y-35820000D01*
X119232500Y-36342500D02*
X120127500Y-37237500D01*
X27781250Y-38100000D02*
X27781250Y-42862500D01*
X27781250Y-42862500D02*
X28468750Y-43550000D01*
X101917500Y-35897220D02*
X101917500Y-35877500D01*
X99842500Y-27812220D02*
X100667220Y-26987500D01*
X110331250Y-30162500D02*
X112256250Y-32087500D01*
X118606250Y-32087500D02*
X119232500Y-32713750D01*
X109537500Y-26987500D02*
X110331250Y-27781250D01*
X110331250Y-27781250D02*
X110331250Y-30162500D01*
%TO.N,Net-(D2-A)*%
X54927500Y-28257500D02*
X59145000Y-28257500D01*
X59145000Y-28257500D02*
X60325000Y-29437500D01*
%TO.N,Net-(D3-A)*%
X78195000Y-28257500D02*
X79375000Y-29437500D01*
X73977500Y-28257500D02*
X78195000Y-28257500D01*
%TO.N,Net-(D4-A)*%
X97245000Y-28257500D02*
X98425000Y-29437500D01*
X93027500Y-28257500D02*
X97245000Y-28257500D01*
%TO.N,Net-(D5-A)*%
X113257500Y-29437500D02*
X120650000Y-29437500D01*
X112077500Y-28257500D02*
X113257500Y-29437500D01*
%TO.N,Net-(D6-A)*%
X131127500Y-28257500D02*
X135345000Y-28257500D01*
X135345000Y-28257500D02*
X136525000Y-29437500D01*
%TO.N,Net-(D7-A)*%
X150177500Y-28257500D02*
X154395000Y-28257500D01*
X154395000Y-28257500D02*
X155575000Y-29437500D01*
%TO.N,Net-(D8-A)*%
X173445000Y-28257500D02*
X174625000Y-29437500D01*
X169227500Y-28257500D02*
X173445000Y-28257500D01*
%TO.N,Net-(D9-A)*%
X188277500Y-28257500D02*
X192495000Y-28257500D01*
X192495000Y-28257500D02*
X193675000Y-29437500D01*
%TO.N,Net-(D10-A)*%
X207327500Y-28257500D02*
X198030000Y-28257500D01*
X198030000Y-28257500D02*
X196850000Y-29437500D01*
X207327500Y-28257500D02*
X214471250Y-28257500D01*
%TO.N,Net-(D11-A)*%
X38258750Y-47307500D02*
X42476250Y-47307500D01*
X42476250Y-47307500D02*
X43656250Y-48487500D01*
%TO.N,ROW1*%
X115093750Y-36512500D02*
X115728750Y-35877500D01*
X215619854Y-43550000D02*
X123031250Y-43550000D01*
X224307155Y-44437500D02*
X216507354Y-44437500D01*
X225768750Y-45899095D02*
X224307155Y-44437500D01*
X224631250Y-65812500D02*
X225768750Y-64675000D01*
X206243900Y-64281400D02*
X223100150Y-64281400D01*
X43656250Y-56287500D02*
X198250000Y-56287500D01*
X198437500Y-56475000D02*
X206243900Y-64281400D01*
X115093750Y-38893750D02*
X115093750Y-36512500D01*
X115834375Y-39634375D02*
X115093750Y-38893750D01*
X198250000Y-56287500D02*
X198437500Y-56475000D01*
X216507354Y-44437500D02*
X215619854Y-43550000D01*
X123031250Y-43550000D02*
X119115625Y-39634375D01*
X223100150Y-64281400D02*
X224631250Y-65812500D01*
X225768750Y-64675000D02*
X225768750Y-45899095D01*
X115728750Y-35877500D02*
X117157500Y-35877500D01*
X119115625Y-39634375D02*
X115834375Y-39634375D01*
%TO.N,Net-(D12-A)*%
X63907500Y-47307500D02*
X65087500Y-48487500D01*
X59690000Y-47307500D02*
X63907500Y-47307500D01*
%TO.N,Net-(D13-A)*%
X82957500Y-47307500D02*
X84137500Y-48487500D01*
X78740000Y-47307500D02*
X82957500Y-47307500D01*
%TO.N,Net-(D14-A)*%
X97790000Y-47307500D02*
X102007500Y-47307500D01*
X102007500Y-47307500D02*
X103187500Y-48487500D01*
%TO.N,Net-(D15-A)*%
X121057500Y-47307500D02*
X122237500Y-48487500D01*
X116840000Y-47307500D02*
X121057500Y-47307500D01*
%TO.N,Net-(D16-A)*%
X135890000Y-47307500D02*
X140038750Y-47307500D01*
X140038750Y-47307500D02*
X141287500Y-48556250D01*
%TO.N,Net-(D17-A)*%
X159157500Y-47307500D02*
X160337500Y-48487500D01*
X154940000Y-47307500D02*
X159157500Y-47307500D01*
%TO.N,Net-(D18-A)*%
X178207500Y-47307500D02*
X179387500Y-48487500D01*
X173990000Y-47307500D02*
X178207500Y-47307500D01*
%TO.N,Net-(D19-A)*%
X197070000Y-47307500D02*
X198437500Y-48675000D01*
X193040000Y-47307500D02*
X197070000Y-47307500D01*
%TO.N,Net-(D20-A)*%
X223451250Y-56832500D02*
X224631250Y-58012500D01*
X216852500Y-54451250D02*
X219233750Y-56832500D01*
X219233750Y-56832500D02*
X223451250Y-56832500D01*
X216852500Y-47307500D02*
X216852500Y-54451250D01*
%TO.N,Net-(D21-A)*%
X44857500Y-66357500D02*
X46037500Y-67537500D01*
X40640000Y-66357500D02*
X44857500Y-66357500D01*
%TO.N,ROW2*%
X226218750Y-43725000D02*
X225356250Y-42862500D01*
X224231250Y-43987500D02*
X225356250Y-42862500D01*
X204050150Y-76187650D02*
X225412650Y-76187650D01*
X46037500Y-75337500D02*
X203200000Y-75337500D01*
X226218750Y-75406250D02*
X226218750Y-43725000D01*
X216693750Y-43987500D02*
X224231250Y-43987500D01*
X119380000Y-38417500D02*
X124062500Y-43100000D01*
X117157500Y-38417500D02*
X119380000Y-38417500D01*
X225412650Y-76187650D02*
X225425000Y-76200000D01*
X225425000Y-76200000D02*
X226218750Y-75406250D01*
X124062500Y-43100000D02*
X215806250Y-43100000D01*
X215806250Y-43100000D02*
X216693750Y-43987500D01*
X203200000Y-75337500D02*
X204050150Y-76187650D01*
%TO.N,Net-(D22-A)*%
X68670000Y-66357500D02*
X69850000Y-67537500D01*
X64452500Y-66357500D02*
X68670000Y-66357500D01*
%TO.N,Net-(D23-A)*%
X83502500Y-66357500D02*
X87720000Y-66357500D01*
X87720000Y-66357500D02*
X88900000Y-67537500D01*
%TO.N,Net-(D24-A)*%
X106770000Y-66357500D02*
X107950000Y-67537500D01*
X102552500Y-66357500D02*
X106770000Y-66357500D01*
%TO.N,Net-(D25-A)*%
X121602500Y-66357500D02*
X125820000Y-66357500D01*
X125820000Y-66357500D02*
X127000000Y-67537500D01*
%TO.N,Net-(D26-A)*%
X140652500Y-66357500D02*
X144870000Y-66357500D01*
X144870000Y-66357500D02*
X146050000Y-67537500D01*
%TO.N,Net-(D27-A)*%
X163920000Y-66357500D02*
X165100000Y-67537500D01*
X159702500Y-66357500D02*
X163920000Y-66357500D01*
%TO.N,Net-(D28-A)*%
X178752500Y-66357500D02*
X182970000Y-66357500D01*
X182970000Y-66357500D02*
X184150000Y-67537500D01*
%TO.N,Net-(D29-A)*%
X197802500Y-66357500D02*
X202020000Y-66357500D01*
X202020000Y-66357500D02*
X203200000Y-67537500D01*
%TO.N,Net-(D30-A)*%
X71596250Y-85407500D02*
X75813750Y-85407500D01*
X75813750Y-85407500D02*
X76993750Y-86587500D01*
%TO.N,ROW3*%
X58737500Y-93662500D02*
X58737500Y-79375000D01*
X59462500Y-94387500D02*
X58737500Y-93662500D01*
X58737500Y-79375000D02*
X57943750Y-78581250D01*
X27781250Y-77787500D02*
X27781250Y-44450000D01*
X194468750Y-78581250D02*
X212000000Y-78581250D01*
X28231250Y-44000000D02*
X96354720Y-44000000D01*
X76993750Y-94387500D02*
X59462500Y-94387500D01*
X193675000Y-93662500D02*
X193675000Y-79375000D01*
X96354720Y-44000000D02*
X101917500Y-38437220D01*
X191293750Y-94387500D02*
X192950000Y-94387500D01*
X191293750Y-94387500D02*
X76993750Y-94387500D01*
X193675000Y-79375000D02*
X194468750Y-78581250D01*
X57943750Y-78581250D02*
X28575000Y-78581250D01*
X192950000Y-94387500D02*
X193675000Y-93662500D01*
X28575000Y-78581250D02*
X27781250Y-77787500D01*
X101917500Y-38437220D02*
X101917500Y-38417500D01*
X27781250Y-44450000D02*
X28231250Y-44000000D01*
%TO.N,Net-(D31-A)*%
X102552500Y-85407500D02*
X106770000Y-85407500D01*
X106770000Y-85407500D02*
X107950000Y-86587500D01*
%TO.N,Net-(D32-A)*%
X147796250Y-85407500D02*
X152013750Y-85407500D01*
X140652500Y-85407500D02*
X147796250Y-85407500D01*
X152013750Y-85407500D02*
X153193750Y-86587500D01*
%TO.N,Net-(D33-A)*%
X190113750Y-85407500D02*
X191293750Y-86587500D01*
X185896250Y-85407500D02*
X190113750Y-85407500D01*
%TO.N,COL0*%
X98425000Y-44450000D02*
X101917500Y-40957500D01*
X37306250Y-44450000D02*
X98425000Y-44450000D01*
X31908750Y-49847500D02*
X37306250Y-44450000D01*
%TO.N,COL1*%
X53340000Y-49847500D02*
X58255000Y-44932500D01*
X100482500Y-44932500D02*
X101917500Y-43497500D01*
X58255000Y-44932500D02*
X100482500Y-44932500D01*
%TO.N,COL2*%
X72390000Y-49847500D02*
X76855000Y-45382500D01*
X76855000Y-45382500D02*
X102572500Y-45382500D01*
X102572500Y-45382500D02*
X104457500Y-43497500D01*
%TO.N,COL3*%
X91440000Y-49847500D02*
X95455000Y-45832500D01*
X106997500Y-44992500D02*
X106997500Y-43497500D01*
X95455000Y-45832500D02*
X106157500Y-45832500D01*
X106157500Y-45832500D02*
X106997500Y-44992500D01*
%TO.N,COL4*%
X109537500Y-48895000D02*
X109537500Y-43497500D01*
X110490000Y-49847500D02*
X109537500Y-48895000D01*
%TO.N,COL5*%
X112077500Y-44403750D02*
X112077500Y-43497500D01*
X113506250Y-45832500D02*
X112077500Y-44403750D01*
X129540000Y-49847500D02*
X125525000Y-45832500D01*
X125525000Y-45832500D02*
X113506250Y-45832500D01*
%TO.N,COL6*%
X144125000Y-45382500D02*
X116502500Y-45382500D01*
X116502500Y-45382500D02*
X114617500Y-43497500D01*
X148590000Y-49847500D02*
X144125000Y-45382500D01*
%TO.N,COL7*%
X118592500Y-44932500D02*
X117157500Y-43497500D01*
X162725000Y-44932500D02*
X118592500Y-44932500D01*
X167640000Y-49847500D02*
X162725000Y-44932500D01*
%TO.N,COL8*%
X200010000Y-68897500D02*
X202550000Y-71437500D01*
X103187500Y-41275000D02*
X103187500Y-34131250D01*
X120650000Y-44450000D02*
X118448470Y-42248470D01*
X186690000Y-49847500D02*
X181292500Y-44450000D01*
X104160970Y-42248470D02*
X103187500Y-41275000D01*
X103187500Y-34131250D02*
X102393750Y-33337500D01*
X206533750Y-68897500D02*
X212883750Y-68897500D01*
X181292500Y-44450000D02*
X120650000Y-44450000D01*
X191452500Y-68897500D02*
X200010000Y-68897500D01*
X118448470Y-42248470D02*
X104160970Y-42248470D01*
X102393750Y-33337500D02*
X101917500Y-33337500D01*
X202550000Y-71437500D02*
X203993750Y-71437500D01*
X203993750Y-71437500D02*
X206533750Y-68897500D01*
%TO.N,COL9*%
X118745000Y-40957500D02*
X117157500Y-40957500D01*
X197511250Y-44000000D02*
X121787500Y-44000000D01*
X121787500Y-44000000D02*
X118745000Y-40957500D01*
X212883750Y-59372500D02*
X197511250Y-44000000D01*
%TO.N,Net-(D34-A)*%
X217556250Y-41737500D02*
X217556250Y-42862500D01*
X218956250Y-40337500D02*
X217556250Y-41737500D01*
%TO.N,ROTARY_A*%
X223956250Y-25837500D02*
X223956250Y-23137500D01*
X119062500Y-22102500D02*
X102992500Y-22102500D01*
X119641250Y-22681250D02*
X119062500Y-22102500D01*
X223956250Y-23137500D02*
X223500000Y-22681250D01*
X223500000Y-22681250D02*
X119641250Y-22681250D01*
X102992500Y-22102500D02*
X101917500Y-23177500D01*
%TO.N,ROTARY_B*%
X134143750Y-23131250D02*
X133237500Y-23131250D01*
X218956250Y-23563109D02*
X218524391Y-23131250D01*
X119062500Y-23812500D02*
X118516379Y-24358621D01*
X215900000Y-23131250D02*
X134143750Y-23131250D01*
X103276379Y-24358621D02*
X101917500Y-25717500D01*
X118516379Y-24358621D02*
X103276379Y-24358621D01*
X119743750Y-23131250D02*
X119062500Y-23812500D01*
X218524391Y-23131250D02*
X215900000Y-23131250D01*
X134143750Y-23131250D02*
X119743750Y-23131250D01*
X218956250Y-25837500D02*
X218956250Y-23563109D01*
X215900000Y-23131250D02*
X209550000Y-23131250D01*
%TD*%
%TA.AperFunction,Conductor*%
%TO.N,GND*%
G36*
X116140665Y-22430840D02*
G01*
X116144495Y-22437956D01*
X116142697Y-22445835D01*
X116052589Y-22582341D01*
X116052105Y-22583240D01*
X115964074Y-22789201D01*
X115963761Y-22790163D01*
X115932801Y-22925810D01*
X115932899Y-22927114D01*
X115934148Y-22927500D01*
X117896000Y-22927500D01*
X117904132Y-22930868D01*
X117907500Y-22939000D01*
X117907500Y-23416000D01*
X117904132Y-23424132D01*
X117896000Y-23427500D01*
X115931593Y-23427500D01*
X115930361Y-23427859D01*
X115930169Y-23429131D01*
X115933846Y-23456268D01*
X115934073Y-23457261D01*
X116003286Y-23670280D01*
X116003687Y-23671217D01*
X116109820Y-23868446D01*
X116110391Y-23869310D01*
X116226136Y-24014451D01*
X116228613Y-24022480D01*
X116224967Y-24030051D01*
X116217145Y-24033121D01*
X103291085Y-24033121D01*
X103290083Y-24033077D01*
X103248573Y-24029445D01*
X103248569Y-24029445D01*
X103247572Y-24029358D01*
X103246602Y-24029617D01*
X103246600Y-24029618D01*
X103206344Y-24040404D01*
X103205365Y-24040621D01*
X103164323Y-24047858D01*
X103164319Y-24047859D01*
X103163334Y-24048033D01*
X103162468Y-24048532D01*
X103162465Y-24048534D01*
X103152052Y-24054546D01*
X103149280Y-24055694D01*
X103137666Y-24058806D01*
X103137661Y-24058807D01*
X103136695Y-24059067D01*
X103135873Y-24059642D01*
X103135874Y-24059642D01*
X103101735Y-24083545D01*
X103100889Y-24084083D01*
X103064794Y-24104924D01*
X103064791Y-24104926D01*
X103063924Y-24105427D01*
X103063279Y-24106194D01*
X103063277Y-24106197D01*
X103036491Y-24138118D01*
X103035814Y-24138858D01*
X102324648Y-24850024D01*
X102318688Y-24853185D01*
X102311981Y-24852460D01*
X102204048Y-24806143D01*
X102204047Y-24806142D01*
X102203512Y-24805913D01*
X102202949Y-24805797D01*
X102202942Y-24805795D01*
X102014721Y-24767116D01*
X102014719Y-24767115D01*
X102014156Y-24767000D01*
X100869294Y-24767000D01*
X100869010Y-24767028D01*
X100869007Y-24767029D01*
X100725756Y-24781596D01*
X100725752Y-24781596D01*
X100725179Y-24781655D01*
X100724628Y-24781827D01*
X100724627Y-24781828D01*
X100541283Y-24839353D01*
X100540732Y-24839526D01*
X100540231Y-24839803D01*
X100540224Y-24839807D01*
X100372218Y-24933058D01*
X100372214Y-24933060D01*
X100371709Y-24933341D01*
X100371275Y-24933712D01*
X100371267Y-24933719D01*
X100225477Y-25058877D01*
X100225471Y-25058882D01*
X100225032Y-25059260D01*
X100224676Y-25059718D01*
X100224671Y-25059725D01*
X100107059Y-25211667D01*
X100107054Y-25211674D01*
X100106704Y-25212127D01*
X100106450Y-25212642D01*
X100106449Y-25212646D01*
X100034325Y-25359681D01*
X100028933Y-25365004D01*
X100021400Y-25365818D01*
X100014996Y-25361770D01*
X100012500Y-25354616D01*
X100012500Y-23596140D01*
X100012529Y-23595320D01*
X100016201Y-23543969D01*
X100019260Y-23536950D01*
X100026048Y-23533406D01*
X100033557Y-23534911D01*
X100038456Y-23540797D01*
X100059532Y-23597704D01*
X100059534Y-23597709D01*
X100059736Y-23598253D01*
X100161991Y-23762307D01*
X100295177Y-23902419D01*
X100453842Y-24012853D01*
X100631488Y-24089087D01*
X100820844Y-24128000D01*
X101965419Y-24128000D01*
X101965706Y-24128000D01*
X102109821Y-24113345D01*
X102294268Y-24055474D01*
X102463291Y-23961659D01*
X102609968Y-23835740D01*
X102728296Y-23682873D01*
X102813430Y-23509316D01*
X102861885Y-23322174D01*
X102871676Y-23129110D01*
X102842403Y-22938026D01*
X102784124Y-22780671D01*
X102783675Y-22774222D01*
X102786775Y-22768549D01*
X103123957Y-22431368D01*
X103132090Y-22428000D01*
X116133099Y-22428000D01*
X116140665Y-22430840D01*
G37*
%TD.AperFunction*%
%TD*%
%TA.AperFunction,NonConductor*%
G36*
X117069145Y-21596378D02*
G01*
X117069863Y-21596404D01*
X117346336Y-21616179D01*
X117347949Y-21616412D01*
X117625187Y-21676724D01*
X117626739Y-21677179D01*
X117803369Y-21743061D01*
X117834639Y-21754725D01*
X117840613Y-21759809D01*
X117841937Y-21767542D01*
X117837995Y-21774324D01*
X117830620Y-21777000D01*
X103007213Y-21777000D01*
X103006211Y-21776956D01*
X102964694Y-21773323D01*
X102964690Y-21773323D01*
X102963693Y-21773236D01*
X102962723Y-21773495D01*
X102962721Y-21773496D01*
X102922458Y-21784284D01*
X102921479Y-21784501D01*
X102880444Y-21791737D01*
X102880440Y-21791738D01*
X102879455Y-21791912D01*
X102878589Y-21792411D01*
X102878586Y-21792413D01*
X102868173Y-21798425D01*
X102865401Y-21799573D01*
X102853787Y-21802685D01*
X102853782Y-21802686D01*
X102852816Y-21802946D01*
X102851994Y-21803521D01*
X102851995Y-21803521D01*
X102817856Y-21827424D01*
X102817010Y-21827962D01*
X102780915Y-21848803D01*
X102780912Y-21848805D01*
X102780045Y-21849306D01*
X102779400Y-21850073D01*
X102779398Y-21850076D01*
X102752612Y-21881997D01*
X102751935Y-21882737D01*
X102324648Y-22310024D01*
X102318688Y-22313185D01*
X102311981Y-22312460D01*
X102204048Y-22266143D01*
X102204047Y-22266142D01*
X102203512Y-22265913D01*
X102202949Y-22265797D01*
X102202942Y-22265795D01*
X102014721Y-22227116D01*
X102014719Y-22227115D01*
X102014156Y-22227000D01*
X100869294Y-22227000D01*
X100869010Y-22227028D01*
X100869007Y-22227029D01*
X100725756Y-22241596D01*
X100725752Y-22241596D01*
X100725179Y-22241655D01*
X100724628Y-22241827D01*
X100724627Y-22241828D01*
X100541283Y-22299353D01*
X100540732Y-22299526D01*
X100540231Y-22299803D01*
X100540224Y-22299807D01*
X100502445Y-22320776D01*
X100494881Y-22322049D01*
X100488199Y-22318282D01*
X100485372Y-22311151D01*
X100487657Y-22303830D01*
X100500518Y-22286650D01*
X100501579Y-22285425D01*
X100702214Y-22084792D01*
X100703439Y-22083731D01*
X100930579Y-21913698D01*
X100931946Y-21912820D01*
X101180961Y-21776849D01*
X101182445Y-21776171D01*
X101448292Y-21677019D01*
X101449848Y-21676562D01*
X101727091Y-21616254D01*
X101728696Y-21616023D01*
X102005126Y-21596254D01*
X102005933Y-21596226D01*
X117069145Y-21596378D01*
G37*
%TD.AperFunction*%
%TA.AperFunction,NonConductor*%
G36*
X100029708Y-26064892D02*
G01*
X100034784Y-26070881D01*
X100059532Y-26137704D01*
X100059534Y-26137709D01*
X100059736Y-26138253D01*
X100161991Y-26302307D01*
X100295177Y-26442419D01*
X100453842Y-26552853D01*
X100631488Y-26629087D01*
X100678370Y-26638721D01*
X100685471Y-26643383D01*
X100687434Y-26651647D01*
X100683190Y-26659005D01*
X100675053Y-26661442D01*
X100639415Y-26658324D01*
X100639411Y-26658324D01*
X100638413Y-26658237D01*
X100637443Y-26658496D01*
X100637441Y-26658497D01*
X100597185Y-26669283D01*
X100596206Y-26669500D01*
X100555164Y-26676737D01*
X100555160Y-26676738D01*
X100554175Y-26676912D01*
X100553309Y-26677411D01*
X100553306Y-26677413D01*
X100542893Y-26683425D01*
X100540121Y-26684573D01*
X100528507Y-26687685D01*
X100528502Y-26687686D01*
X100527536Y-26687946D01*
X100526714Y-26688521D01*
X100526715Y-26688521D01*
X100492573Y-26712426D01*
X100491727Y-26712964D01*
X100455635Y-26733803D01*
X100455632Y-26733805D01*
X100454765Y-26734306D01*
X100454120Y-26735073D01*
X100454118Y-26735076D01*
X100427337Y-26766991D01*
X100426660Y-26767731D01*
X100292551Y-26901841D01*
X100032130Y-27162261D01*
X100026244Y-27165408D01*
X100019599Y-27164754D01*
X100014438Y-27160518D01*
X100012500Y-27154129D01*
X100012500Y-26074875D01*
X100015180Y-26067495D01*
X100021971Y-26063555D01*
X100029708Y-26064892D01*
G37*
%TD.AperFunction*%
%TA.AperFunction,NonConductor*%
G36*
X119060004Y-28613230D02*
G01*
X119062500Y-28620384D01*
X119062500Y-29100500D01*
X119059132Y-29108632D01*
X119051000Y-29112000D01*
X118620976Y-29112000D01*
X118613937Y-29109594D01*
X118609843Y-29103382D01*
X118610408Y-29095965D01*
X118615395Y-29090445D01*
X118619111Y-29088382D01*
X118703291Y-29041659D01*
X118849968Y-28915740D01*
X118968296Y-28762873D01*
X119040674Y-28615319D01*
X119046067Y-28609996D01*
X119053600Y-28609182D01*
X119060004Y-28613230D01*
G37*
%TD.AperFunction*%
%TA.AperFunction,NonConductor*%
G36*
X119059132Y-24292458D02*
G01*
X119062500Y-24300590D01*
X119062500Y-25360125D01*
X119059820Y-25367505D01*
X119053029Y-25371445D01*
X119045292Y-25370108D01*
X119040216Y-25364119D01*
X119036696Y-25354616D01*
X119015264Y-25296747D01*
X118913009Y-25132693D01*
X118779823Y-24992581D01*
X118621158Y-24882147D01*
X118620626Y-24881918D01*
X118620623Y-24881917D01*
X118444048Y-24806143D01*
X118444047Y-24806142D01*
X118443512Y-24805913D01*
X118442949Y-24805797D01*
X118442942Y-24805795D01*
X118254721Y-24767116D01*
X118254719Y-24767115D01*
X118254156Y-24767000D01*
X117109294Y-24767000D01*
X117109010Y-24767028D01*
X117109007Y-24767029D01*
X116965756Y-24781596D01*
X116965752Y-24781596D01*
X116965179Y-24781655D01*
X116964628Y-24781827D01*
X116964627Y-24781828D01*
X116781283Y-24839353D01*
X116780732Y-24839526D01*
X116780231Y-24839803D01*
X116780224Y-24839807D01*
X116612218Y-24933058D01*
X116612214Y-24933060D01*
X116611709Y-24933341D01*
X116611275Y-24933712D01*
X116611267Y-24933719D01*
X116465477Y-25058877D01*
X116465471Y-25058882D01*
X116465032Y-25059260D01*
X116464676Y-25059718D01*
X116464671Y-25059725D01*
X116347059Y-25211667D01*
X116347054Y-25211674D01*
X116346704Y-25212127D01*
X116346450Y-25212642D01*
X116346449Y-25212646D01*
X116261823Y-25385167D01*
X116261821Y-25385172D01*
X116261570Y-25385684D01*
X116261428Y-25386230D01*
X116261425Y-25386240D01*
X116213261Y-25572259D01*
X116213259Y-25572266D01*
X116213115Y-25572826D01*
X116213085Y-25573409D01*
X116213085Y-25573412D01*
X116203353Y-25765307D01*
X116203353Y-25765312D01*
X116203324Y-25765890D01*
X116203411Y-25766463D01*
X116203412Y-25766467D01*
X116218160Y-25862740D01*
X116232597Y-25956974D01*
X116232798Y-25957518D01*
X116232799Y-25957520D01*
X116299532Y-26137704D01*
X116299534Y-26137709D01*
X116299736Y-26138253D01*
X116401991Y-26302307D01*
X116535177Y-26442419D01*
X116693842Y-26552853D01*
X116871488Y-26629087D01*
X117060844Y-26668000D01*
X118205419Y-26668000D01*
X118205706Y-26668000D01*
X118349821Y-26653345D01*
X118534268Y-26595474D01*
X118703291Y-26501659D01*
X118849968Y-26375740D01*
X118968296Y-26222873D01*
X119040674Y-26075319D01*
X119046067Y-26069996D01*
X119053600Y-26069182D01*
X119060004Y-26073230D01*
X119062500Y-26080384D01*
X119062500Y-27900125D01*
X119059820Y-27907505D01*
X119053029Y-27911445D01*
X119045292Y-27910108D01*
X119040216Y-27904119D01*
X119015467Y-27837295D01*
X119015466Y-27837294D01*
X119015264Y-27836747D01*
X118913009Y-27672693D01*
X118779823Y-27532581D01*
X118621158Y-27422147D01*
X118620626Y-27421918D01*
X118620623Y-27421917D01*
X118444048Y-27346143D01*
X118444047Y-27346142D01*
X118443512Y-27345913D01*
X118442949Y-27345797D01*
X118442942Y-27345795D01*
X118254721Y-27307116D01*
X118254719Y-27307115D01*
X118254156Y-27307000D01*
X117109294Y-27307000D01*
X117109010Y-27307028D01*
X117109007Y-27307029D01*
X116965756Y-27321596D01*
X116965752Y-27321596D01*
X116965179Y-27321655D01*
X116964628Y-27321827D01*
X116964627Y-27321828D01*
X116781283Y-27379353D01*
X116780732Y-27379526D01*
X116780231Y-27379803D01*
X116780224Y-27379807D01*
X116612218Y-27473058D01*
X116612214Y-27473060D01*
X116611709Y-27473341D01*
X116611275Y-27473712D01*
X116611267Y-27473719D01*
X116465477Y-27598877D01*
X116465471Y-27598882D01*
X116465032Y-27599260D01*
X116464676Y-27599718D01*
X116464671Y-27599725D01*
X116347059Y-27751667D01*
X116347054Y-27751674D01*
X116346704Y-27752127D01*
X116346450Y-27752642D01*
X116346449Y-27752646D01*
X116261823Y-27925167D01*
X116261821Y-27925172D01*
X116261570Y-27925684D01*
X116261428Y-27926230D01*
X116261425Y-27926240D01*
X116213261Y-28112259D01*
X116213259Y-28112266D01*
X116213115Y-28112826D01*
X116213085Y-28113409D01*
X116213085Y-28113412D01*
X116203353Y-28305307D01*
X116203353Y-28305312D01*
X116203324Y-28305890D01*
X116203411Y-28306463D01*
X116203412Y-28306467D01*
X116218160Y-28402740D01*
X116232597Y-28496974D01*
X116232798Y-28497518D01*
X116232799Y-28497520D01*
X116299532Y-28677704D01*
X116299534Y-28677709D01*
X116299736Y-28678253D01*
X116401991Y-28842307D01*
X116535177Y-28982419D01*
X116535654Y-28982751D01*
X116691267Y-29091061D01*
X116695579Y-29096780D01*
X116695670Y-29103943D01*
X116691504Y-29109769D01*
X116684697Y-29112000D01*
X113397090Y-29112000D01*
X113388958Y-29108632D01*
X113243581Y-28963255D01*
X113240257Y-28956125D01*
X113242292Y-28948529D01*
X113251535Y-28935330D01*
X113351403Y-28721163D01*
X113412563Y-28492908D01*
X113433159Y-28257500D01*
X113412563Y-28022092D01*
X113351403Y-27793837D01*
X113312646Y-27710724D01*
X113260886Y-27599725D01*
X113251535Y-27579671D01*
X113115995Y-27386099D01*
X112948901Y-27219005D01*
X112948492Y-27218719D01*
X112948489Y-27218716D01*
X112755746Y-27083756D01*
X112755743Y-27083754D01*
X112755330Y-27083465D01*
X112754875Y-27083253D01*
X112754872Y-27083251D01*
X112541619Y-26983809D01*
X112541612Y-26983806D01*
X112541163Y-26983597D01*
X112540680Y-26983467D01*
X112540673Y-26983465D01*
X112313392Y-26922566D01*
X112313384Y-26922564D01*
X112312908Y-26922437D01*
X112312408Y-26922393D01*
X112312407Y-26922393D01*
X112078003Y-26901885D01*
X112077500Y-26901841D01*
X112076997Y-26901885D01*
X111842592Y-26922393D01*
X111842589Y-26922393D01*
X111842092Y-26922437D01*
X111841617Y-26922564D01*
X111841607Y-26922566D01*
X111614326Y-26983465D01*
X111614315Y-26983468D01*
X111613837Y-26983597D01*
X111613390Y-26983805D01*
X111613380Y-26983809D01*
X111400128Y-27083251D01*
X111400119Y-27083255D01*
X111399671Y-27083465D01*
X111399262Y-27083751D01*
X111399254Y-27083756D01*
X111206510Y-27218716D01*
X111206501Y-27218723D01*
X111206099Y-27219005D01*
X111205752Y-27219351D01*
X111205746Y-27219357D01*
X111039357Y-27385746D01*
X111039351Y-27385752D01*
X111039005Y-27386099D01*
X111038723Y-27386501D01*
X111038716Y-27386510D01*
X110903756Y-27579254D01*
X110903751Y-27579262D01*
X110903465Y-27579671D01*
X110903255Y-27580119D01*
X110903251Y-27580128D01*
X110803809Y-27793380D01*
X110803805Y-27793390D01*
X110803597Y-27793837D01*
X110803468Y-27794315D01*
X110803465Y-27794326D01*
X110742566Y-28021607D01*
X110742564Y-28021617D01*
X110742437Y-28022092D01*
X110742393Y-28022589D01*
X110742393Y-28022592D01*
X110734447Y-28113412D01*
X110721841Y-28257500D01*
X110742437Y-28492908D01*
X110742564Y-28493384D01*
X110742566Y-28493392D01*
X110803465Y-28720673D01*
X110803467Y-28720680D01*
X110803597Y-28721163D01*
X110803806Y-28721612D01*
X110803809Y-28721619D01*
X110894330Y-28915740D01*
X110903465Y-28935330D01*
X110903754Y-28935743D01*
X110903756Y-28935746D01*
X111038716Y-29128489D01*
X111038719Y-29128492D01*
X111039005Y-29128901D01*
X111206099Y-29295995D01*
X111399670Y-29431535D01*
X111400127Y-29431748D01*
X111597551Y-29523809D01*
X111613837Y-29531403D01*
X111842092Y-29592563D01*
X112077500Y-29613159D01*
X112312908Y-29592563D01*
X112541163Y-29531403D01*
X112755330Y-29431535D01*
X112768529Y-29422292D01*
X112776125Y-29420257D01*
X112783255Y-29423581D01*
X113016931Y-29657257D01*
X113017609Y-29657997D01*
X113044399Y-29689925D01*
X113044401Y-29689927D01*
X113045045Y-29690694D01*
X113069978Y-29705089D01*
X113082010Y-29712036D01*
X113082856Y-29712575D01*
X113117816Y-29737054D01*
X113130399Y-29740425D01*
X113133173Y-29741574D01*
X113144455Y-29748088D01*
X113186480Y-29755497D01*
X113187452Y-29755713D01*
X113228693Y-29766764D01*
X113271211Y-29763043D01*
X113272213Y-29763000D01*
X119051000Y-29763000D01*
X119059132Y-29766368D01*
X119062500Y-29774500D01*
X119062500Y-30440125D01*
X119059820Y-30447505D01*
X119053029Y-30451445D01*
X119045292Y-30450108D01*
X119040216Y-30444119D01*
X119015467Y-30377295D01*
X119015466Y-30377294D01*
X119015264Y-30376747D01*
X118913009Y-30212693D01*
X118779823Y-30072581D01*
X118621158Y-29962147D01*
X118620626Y-29961918D01*
X118620623Y-29961917D01*
X118444048Y-29886143D01*
X118444047Y-29886142D01*
X118443512Y-29885913D01*
X118442949Y-29885797D01*
X118442942Y-29885795D01*
X118254721Y-29847116D01*
X118254719Y-29847115D01*
X118254156Y-29847000D01*
X117109294Y-29847000D01*
X117109010Y-29847028D01*
X117109007Y-29847029D01*
X116965756Y-29861596D01*
X116965752Y-29861596D01*
X116965179Y-29861655D01*
X116964628Y-29861827D01*
X116964627Y-29861828D01*
X116781283Y-29919353D01*
X116780732Y-29919526D01*
X116780231Y-29919803D01*
X116780224Y-29919807D01*
X116612218Y-30013058D01*
X116612214Y-30013060D01*
X116611709Y-30013341D01*
X116611275Y-30013712D01*
X116611267Y-30013719D01*
X116465477Y-30138877D01*
X116465471Y-30138882D01*
X116465032Y-30139260D01*
X116464676Y-30139718D01*
X116464671Y-30139725D01*
X116347059Y-30291667D01*
X116347054Y-30291674D01*
X116346704Y-30292127D01*
X116346450Y-30292642D01*
X116346449Y-30292646D01*
X116261823Y-30465167D01*
X116261821Y-30465172D01*
X116261570Y-30465684D01*
X116261428Y-30466230D01*
X116261425Y-30466240D01*
X116213261Y-30652259D01*
X116213259Y-30652266D01*
X116213115Y-30652826D01*
X116213085Y-30653409D01*
X116213085Y-30653412D01*
X116203353Y-30845307D01*
X116203353Y-30845312D01*
X116203324Y-30845890D01*
X116203411Y-30846463D01*
X116203412Y-30846467D01*
X116218160Y-30942740D01*
X116232597Y-31036974D01*
X116232798Y-31037518D01*
X116232799Y-31037520D01*
X116299532Y-31217704D01*
X116299534Y-31217709D01*
X116299736Y-31218253D01*
X116401991Y-31382307D01*
X116535177Y-31522419D01*
X116693842Y-31632853D01*
X116871488Y-31709087D01*
X116872056Y-31709203D01*
X116872057Y-31709204D01*
X117018192Y-31739235D01*
X117025146Y-31743693D01*
X117027318Y-31751663D01*
X117023586Y-31759033D01*
X117015877Y-31762000D01*
X112395840Y-31762000D01*
X112387708Y-31758632D01*
X110660118Y-30031042D01*
X110656750Y-30022910D01*
X110656750Y-27795963D01*
X110656794Y-27794961D01*
X110660426Y-27753444D01*
X110660514Y-27752443D01*
X110649463Y-27711202D01*
X110649247Y-27710226D01*
X110641838Y-27668205D01*
X110635324Y-27656923D01*
X110634175Y-27654149D01*
X110631065Y-27642541D01*
X110630804Y-27641566D01*
X110606325Y-27606606D01*
X110605786Y-27605760D01*
X110590723Y-27579671D01*
X110584444Y-27568795D01*
X110551751Y-27541362D01*
X110551011Y-27540685D01*
X109778067Y-26767741D01*
X109777389Y-26767001D01*
X109750600Y-26735074D01*
X109750598Y-26735072D01*
X109749955Y-26734306D01*
X109749084Y-26733803D01*
X109712988Y-26712962D01*
X109712142Y-26712423D01*
X109678008Y-26688523D01*
X109677184Y-26687946D01*
X109676214Y-26687686D01*
X109676212Y-26687685D01*
X109664597Y-26684573D01*
X109661824Y-26683424D01*
X109651415Y-26677414D01*
X109651413Y-26677413D01*
X109650545Y-26676912D01*
X109649557Y-26676737D01*
X109649555Y-26676737D01*
X109608519Y-26669501D01*
X109607540Y-26669284D01*
X109567278Y-26658496D01*
X109567277Y-26658495D01*
X109566307Y-26658236D01*
X109565308Y-26658323D01*
X109565305Y-26658323D01*
X109523789Y-26661956D01*
X109522787Y-26662000D01*
X102157305Y-26662000D01*
X102149814Y-26659226D01*
X102145938Y-26652241D01*
X102147546Y-26644417D01*
X102153862Y-26639527D01*
X102187136Y-26629087D01*
X102294268Y-26595474D01*
X102463291Y-26501659D01*
X102609968Y-26375740D01*
X102728296Y-26222873D01*
X102813430Y-26049316D01*
X102861885Y-25862174D01*
X102871676Y-25669110D01*
X102842403Y-25478026D01*
X102784124Y-25320671D01*
X102783675Y-25314222D01*
X102786775Y-25308549D01*
X103407836Y-24687489D01*
X103415969Y-24684121D01*
X118501666Y-24684121D01*
X118502667Y-24684164D01*
X118545186Y-24687885D01*
X118586430Y-24676832D01*
X118587392Y-24676619D01*
X118629424Y-24669209D01*
X118640711Y-24662691D01*
X118643470Y-24661548D01*
X118656063Y-24658175D01*
X118691028Y-24633691D01*
X118691859Y-24633161D01*
X118728834Y-24611815D01*
X118756281Y-24579103D01*
X118756937Y-24578387D01*
X119042867Y-24292458D01*
X119051000Y-24289090D01*
X119059132Y-24292458D01*
G37*
%TD.AperFunction*%
%TA.AperFunction,NonConductor*%
G36*
X119060004Y-31153230D02*
G01*
X119062500Y-31160384D01*
X119062500Y-32055660D01*
X119059132Y-32063792D01*
X119051000Y-32067160D01*
X119042868Y-32063792D01*
X118846817Y-31867741D01*
X118846139Y-31867001D01*
X118819350Y-31835074D01*
X118819348Y-31835072D01*
X118818705Y-31834306D01*
X118817834Y-31833803D01*
X118781738Y-31812962D01*
X118780892Y-31812423D01*
X118746758Y-31788523D01*
X118745934Y-31787946D01*
X118744964Y-31787686D01*
X118744962Y-31787685D01*
X118733347Y-31784573D01*
X118730574Y-31783424D01*
X118720165Y-31777414D01*
X118720163Y-31777413D01*
X118719295Y-31776912D01*
X118718307Y-31776737D01*
X118718305Y-31776737D01*
X118677269Y-31769501D01*
X118676290Y-31769284D01*
X118636028Y-31758496D01*
X118636027Y-31758495D01*
X118635057Y-31758236D01*
X118634058Y-31758323D01*
X118634055Y-31758323D01*
X118592539Y-31761956D01*
X118591537Y-31762000D01*
X118294793Y-31762000D01*
X118286870Y-31758835D01*
X118283308Y-31751082D01*
X118286067Y-31743009D01*
X118293630Y-31739059D01*
X118349821Y-31733345D01*
X118534268Y-31675474D01*
X118703291Y-31581659D01*
X118849968Y-31455740D01*
X118968296Y-31302873D01*
X119040674Y-31155319D01*
X119046067Y-31149996D01*
X119053600Y-31149182D01*
X119060004Y-31153230D01*
G37*
%TD.AperFunction*%
%TA.AperFunction,NonConductor*%
G36*
X100187835Y-33949495D02*
G01*
X100239831Y-34004195D01*
X100295177Y-34062419D01*
X100453842Y-34172853D01*
X100631488Y-34249087D01*
X100820844Y-34288000D01*
X101965419Y-34288000D01*
X101965706Y-34288000D01*
X102109821Y-34273345D01*
X102294268Y-34215474D01*
X102463291Y-34121659D01*
X102592033Y-34011136D01*
X102599960Y-34008371D01*
X102607655Y-34011731D01*
X102858632Y-34262708D01*
X102862000Y-34270840D01*
X102862000Y-35626777D01*
X102859320Y-35634157D01*
X102852529Y-35638097D01*
X102844792Y-35636760D01*
X102839716Y-35630771D01*
X102775467Y-35457295D01*
X102775466Y-35457294D01*
X102775264Y-35456747D01*
X102673009Y-35292693D01*
X102539823Y-35152581D01*
X102381158Y-35042147D01*
X102380626Y-35041918D01*
X102380623Y-35041917D01*
X102204048Y-34966143D01*
X102204047Y-34966142D01*
X102203512Y-34965913D01*
X102202949Y-34965797D01*
X102202942Y-34965795D01*
X102014721Y-34927116D01*
X102014719Y-34927115D01*
X102014156Y-34927000D01*
X100869294Y-34927000D01*
X100869010Y-34927028D01*
X100869007Y-34927029D01*
X100725756Y-34941596D01*
X100725752Y-34941596D01*
X100725179Y-34941655D01*
X100724628Y-34941827D01*
X100724627Y-34941828D01*
X100541283Y-34999353D01*
X100540732Y-34999526D01*
X100540231Y-34999803D01*
X100540224Y-34999807D01*
X100372218Y-35093058D01*
X100372214Y-35093060D01*
X100371709Y-35093341D01*
X100371275Y-35093712D01*
X100371267Y-35093719D01*
X100225477Y-35218877D01*
X100225471Y-35218882D01*
X100225032Y-35219260D01*
X100224676Y-35219718D01*
X100224671Y-35219725D01*
X100188594Y-35266334D01*
X100182803Y-35270310D01*
X100175780Y-35270177D01*
X100170145Y-35265984D01*
X100168000Y-35259295D01*
X100168000Y-33957418D01*
X100169979Y-33950969D01*
X100175234Y-33946738D01*
X100181957Y-33946184D01*
X100187835Y-33949495D01*
G37*
%TD.AperFunction*%
%TA.AperFunction,NonConductor*%
G36*
X100029708Y-36224892D02*
G01*
X100034784Y-36230881D01*
X100059532Y-36297704D01*
X100059534Y-36297709D01*
X100059736Y-36298253D01*
X100161991Y-36462307D01*
X100295177Y-36602419D01*
X100453842Y-36712853D01*
X100569577Y-36762519D01*
X100575048Y-36767420D01*
X100576436Y-36774635D01*
X100573173Y-36781218D01*
X100032132Y-37322260D01*
X100026244Y-37325407D01*
X100019599Y-37324753D01*
X100014438Y-37320517D01*
X100012500Y-37314128D01*
X100012500Y-36234875D01*
X100015180Y-36227495D01*
X100021971Y-36223555D01*
X100029708Y-36224892D01*
G37*
%TD.AperFunction*%
%TA.AperFunction,NonConductor*%
G36*
X102859130Y-36104425D02*
G01*
X102862000Y-36112026D01*
X102862000Y-38166777D01*
X102859320Y-38174157D01*
X102852529Y-38178097D01*
X102844792Y-38176760D01*
X102839716Y-38170771D01*
X102775467Y-37997295D01*
X102775466Y-37997294D01*
X102775264Y-37996747D01*
X102673009Y-37832693D01*
X102539823Y-37692581D01*
X102381158Y-37582147D01*
X102380626Y-37581918D01*
X102380623Y-37581917D01*
X102204048Y-37506143D01*
X102204047Y-37506142D01*
X102203512Y-37505913D01*
X102202949Y-37505797D01*
X102202942Y-37505795D01*
X102014721Y-37467116D01*
X102014719Y-37467115D01*
X102014156Y-37467000D01*
X100869294Y-37467000D01*
X100869010Y-37467028D01*
X100869007Y-37467029D01*
X100833248Y-37470665D01*
X100826440Y-37469243D01*
X100821697Y-37464157D01*
X100820753Y-37457267D01*
X100823951Y-37451094D01*
X101443678Y-36831368D01*
X101451811Y-36828000D01*
X101965419Y-36828000D01*
X101965706Y-36828000D01*
X102109821Y-36813345D01*
X102294268Y-36755474D01*
X102463291Y-36661659D01*
X102609968Y-36535740D01*
X102728296Y-36382873D01*
X102813430Y-36209316D01*
X102834835Y-36126646D01*
X102839367Y-36109143D01*
X102844051Y-36102505D01*
X102851953Y-36100618D01*
X102859130Y-36104425D01*
G37*
%TD.AperFunction*%
%TA.AperFunction,NonConductor*%
G36*
X116263024Y-36205061D02*
G01*
X116267238Y-36210506D01*
X116299532Y-36297704D01*
X116299534Y-36297709D01*
X116299736Y-36298253D01*
X116401991Y-36462307D01*
X116535177Y-36602419D01*
X116693842Y-36712853D01*
X116871488Y-36789087D01*
X117060844Y-36828000D01*
X118205419Y-36828000D01*
X118205706Y-36828000D01*
X118349821Y-36813345D01*
X118534268Y-36755474D01*
X118703291Y-36661659D01*
X118849968Y-36535740D01*
X118907210Y-36461788D01*
X118913356Y-36457713D01*
X118920717Y-36458210D01*
X118926260Y-36463077D01*
X118928423Y-36466822D01*
X118929573Y-36469597D01*
X118932685Y-36481212D01*
X118932686Y-36481214D01*
X118932946Y-36482184D01*
X118935111Y-36485277D01*
X118957423Y-36517142D01*
X118957962Y-36517988D01*
X118967943Y-36535274D01*
X118979306Y-36554955D01*
X118980072Y-36555598D01*
X118980074Y-36555600D01*
X119012003Y-36582391D01*
X119012743Y-36583069D01*
X119059132Y-36629458D01*
X119062500Y-36637590D01*
X119062500Y-38060125D01*
X119059820Y-38067505D01*
X119053029Y-38071445D01*
X119045292Y-38070108D01*
X119040216Y-38064119D01*
X119015467Y-37997295D01*
X119015466Y-37997294D01*
X119015264Y-37996747D01*
X118913009Y-37832693D01*
X118779823Y-37692581D01*
X118621158Y-37582147D01*
X118620626Y-37581918D01*
X118620623Y-37581917D01*
X118444048Y-37506143D01*
X118444047Y-37506142D01*
X118443512Y-37505913D01*
X118442949Y-37505797D01*
X118442942Y-37505795D01*
X118254721Y-37467116D01*
X118254719Y-37467115D01*
X118254156Y-37467000D01*
X117109294Y-37467000D01*
X117109010Y-37467028D01*
X117109007Y-37467029D01*
X116965756Y-37481596D01*
X116965752Y-37481596D01*
X116965179Y-37481655D01*
X116964628Y-37481827D01*
X116964627Y-37481828D01*
X116781283Y-37539353D01*
X116780732Y-37539526D01*
X116780231Y-37539803D01*
X116780224Y-37539807D01*
X116612218Y-37633058D01*
X116612214Y-37633060D01*
X116611709Y-37633341D01*
X116611275Y-37633712D01*
X116611267Y-37633719D01*
X116465477Y-37758877D01*
X116465471Y-37758882D01*
X116465032Y-37759260D01*
X116464676Y-37759718D01*
X116464671Y-37759725D01*
X116347059Y-37911667D01*
X116347054Y-37911674D01*
X116346704Y-37912127D01*
X116346450Y-37912642D01*
X116346449Y-37912646D01*
X116261823Y-38085167D01*
X116261821Y-38085172D01*
X116261570Y-38085684D01*
X116261428Y-38086230D01*
X116261425Y-38086240D01*
X116213261Y-38272259D01*
X116213259Y-38272266D01*
X116213115Y-38272826D01*
X116213085Y-38273409D01*
X116213085Y-38273412D01*
X116203353Y-38465307D01*
X116203353Y-38465312D01*
X116203324Y-38465890D01*
X116203411Y-38466463D01*
X116203412Y-38466467D01*
X116230674Y-38644425D01*
X116232597Y-38656974D01*
X116232798Y-38657518D01*
X116232799Y-38657520D01*
X116299532Y-38837704D01*
X116299534Y-38837709D01*
X116299736Y-38838253D01*
X116401991Y-39002307D01*
X116535177Y-39142419D01*
X116693842Y-39252853D01*
X116694377Y-39253082D01*
X116694376Y-39253082D01*
X116772964Y-39286807D01*
X116778622Y-39292051D01*
X116779694Y-39299690D01*
X116775696Y-39306288D01*
X116768429Y-39308875D01*
X115973965Y-39308875D01*
X115965833Y-39305507D01*
X115422618Y-38762292D01*
X115419250Y-38754160D01*
X115419250Y-36652090D01*
X115422618Y-36643958D01*
X115860208Y-36206368D01*
X115868340Y-36203000D01*
X116256454Y-36203000D01*
X116263024Y-36205061D01*
G37*
%TD.AperFunction*%
%TA.AperFunction,NonConductor*%
G36*
X119060004Y-38773230D02*
G01*
X119062500Y-38780384D01*
X119062500Y-39297375D01*
X119059132Y-39305507D01*
X119051000Y-39308875D01*
X118554540Y-39308875D01*
X118547501Y-39306469D01*
X118543407Y-39300257D01*
X118543972Y-39292840D01*
X118548959Y-39287320D01*
X118566035Y-39277841D01*
X118703291Y-39201659D01*
X118849968Y-39075740D01*
X118968296Y-38922873D01*
X119040674Y-38775319D01*
X119046067Y-38769996D01*
X119053600Y-38769182D01*
X119060004Y-38773230D01*
G37*
%TD.AperFunction*%
%TA.AperFunction,NonConductor*%
G36*
X100029708Y-38764892D02*
G01*
X100034784Y-38770881D01*
X100059532Y-38837704D01*
X100059534Y-38837709D01*
X100059736Y-38838253D01*
X100161991Y-39002307D01*
X100295177Y-39142419D01*
X100453842Y-39252853D01*
X100569578Y-39302519D01*
X100575049Y-39307420D01*
X100576437Y-39314635D01*
X100573174Y-39321218D01*
X100032132Y-39862261D01*
X100026244Y-39865408D01*
X100019599Y-39864754D01*
X100014438Y-39860518D01*
X100012500Y-39854129D01*
X100012500Y-38774875D01*
X100015180Y-38767495D01*
X100021971Y-38763555D01*
X100029708Y-38764892D01*
G37*
%TD.AperFunction*%
%TA.AperFunction,NonConductor*%
G36*
X102859130Y-38644425D02*
G01*
X102862000Y-38652026D01*
X102862000Y-40706777D01*
X102859320Y-40714157D01*
X102852529Y-40718097D01*
X102844792Y-40716760D01*
X102839716Y-40710771D01*
X102775467Y-40537295D01*
X102775466Y-40537294D01*
X102775264Y-40536747D01*
X102673009Y-40372693D01*
X102539823Y-40232581D01*
X102381158Y-40122147D01*
X102380626Y-40121918D01*
X102380623Y-40121917D01*
X102204048Y-40046143D01*
X102204047Y-40046142D01*
X102203512Y-40045913D01*
X102202949Y-40045797D01*
X102202942Y-40045795D01*
X102014721Y-40007116D01*
X102014719Y-40007115D01*
X102014156Y-40007000D01*
X100869294Y-40007000D01*
X100869010Y-40007028D01*
X100869007Y-40007029D01*
X100833247Y-40010665D01*
X100826439Y-40009243D01*
X100821696Y-40004157D01*
X100820752Y-39997267D01*
X100823950Y-39991094D01*
X101443677Y-39371368D01*
X101451810Y-39368000D01*
X101965419Y-39368000D01*
X101965706Y-39368000D01*
X102109821Y-39353345D01*
X102294268Y-39295474D01*
X102463291Y-39201659D01*
X102609968Y-39075740D01*
X102728296Y-38922873D01*
X102813430Y-38749316D01*
X102837489Y-38656396D01*
X102839367Y-38649143D01*
X102844051Y-38642505D01*
X102851953Y-38640618D01*
X102859130Y-38644425D01*
G37*
%TD.AperFunction*%
%TA.AperFunction,NonConductor*%
G36*
X109406042Y-27316368D02*
G01*
X110002382Y-27912708D01*
X110005750Y-27920840D01*
X110005750Y-30147787D01*
X110005706Y-30148789D01*
X110002073Y-30190305D01*
X110002073Y-30190308D01*
X110001986Y-30191307D01*
X110002245Y-30192277D01*
X110002246Y-30192278D01*
X110013034Y-30232540D01*
X110013251Y-30233519D01*
X110020662Y-30275545D01*
X110021163Y-30276413D01*
X110021164Y-30276415D01*
X110027174Y-30286824D01*
X110028323Y-30289597D01*
X110031435Y-30301212D01*
X110031436Y-30301214D01*
X110031696Y-30302184D01*
X110032273Y-30303008D01*
X110056173Y-30337142D01*
X110056712Y-30337988D01*
X110077553Y-30374084D01*
X110078056Y-30374955D01*
X110078822Y-30375598D01*
X110078824Y-30375600D01*
X110110753Y-30402391D01*
X110111493Y-30403069D01*
X112015681Y-32307257D01*
X112016359Y-32307997D01*
X112043149Y-32339925D01*
X112043151Y-32339927D01*
X112043795Y-32340694D01*
X112068728Y-32355089D01*
X112080760Y-32362036D01*
X112081606Y-32362575D01*
X112116566Y-32387054D01*
X112128720Y-32390310D01*
X112129149Y-32390425D01*
X112131923Y-32391574D01*
X112143205Y-32398088D01*
X112185252Y-32405501D01*
X112186195Y-32405710D01*
X112227443Y-32416763D01*
X112269953Y-32413043D01*
X112270955Y-32413000D01*
X113939140Y-32413000D01*
X113945811Y-32415132D01*
X113950008Y-32420739D01*
X113950174Y-32427740D01*
X113946249Y-32433540D01*
X113837705Y-32518899D01*
X113837698Y-32518905D01*
X113837283Y-32519232D01*
X113836931Y-32519637D01*
X113836929Y-32519640D01*
X113696882Y-32681261D01*
X113696874Y-32681271D01*
X113696524Y-32681676D01*
X113696253Y-32682145D01*
X113696249Y-32682151D01*
X113589324Y-32867351D01*
X113589322Y-32867355D01*
X113589052Y-32867823D01*
X113588875Y-32868332D01*
X113588875Y-32868334D01*
X113518927Y-33070432D01*
X113518924Y-33070440D01*
X113518750Y-33070946D01*
X113518673Y-33071477D01*
X113518672Y-33071484D01*
X113488238Y-33283161D01*
X113488237Y-33283170D01*
X113488161Y-33283703D01*
X113488187Y-33284248D01*
X113488187Y-33284249D01*
X113498361Y-33497857D01*
X113498362Y-33497866D01*
X113498388Y-33498404D01*
X113498514Y-33498926D01*
X113498516Y-33498935D01*
X113547054Y-33699009D01*
X113549063Y-33707290D01*
X113549289Y-33707786D01*
X113549291Y-33707790D01*
X113638128Y-33902317D01*
X113638132Y-33902324D01*
X113638354Y-33902810D01*
X113763034Y-34077899D01*
X113763429Y-34078276D01*
X113763432Y-34078279D01*
X113788775Y-34102443D01*
X113918597Y-34226227D01*
X114099420Y-34342435D01*
X114298968Y-34422322D01*
X114510028Y-34463000D01*
X114670845Y-34463000D01*
X114671118Y-34463000D01*
X114831471Y-34447688D01*
X115037709Y-34387131D01*
X115228759Y-34288638D01*
X115397717Y-34155768D01*
X115538476Y-33993324D01*
X115645948Y-33807177D01*
X115716250Y-33604054D01*
X115746839Y-33391297D01*
X115736612Y-33176596D01*
X115685937Y-32967710D01*
X115650845Y-32890870D01*
X115596871Y-32772682D01*
X115596869Y-32772679D01*
X115596646Y-32772190D01*
X115471966Y-32597101D01*
X115471569Y-32596723D01*
X115471567Y-32596720D01*
X115387131Y-32516212D01*
X115316403Y-32448773D01*
X115315940Y-32448475D01*
X115315937Y-32448473D01*
X115301759Y-32439362D01*
X115293685Y-32434173D01*
X115289128Y-32428519D01*
X115288869Y-32421260D01*
X115293011Y-32415294D01*
X115299903Y-32413000D01*
X116853951Y-32413000D01*
X116861442Y-32415774D01*
X116865318Y-32422759D01*
X116863710Y-32430583D01*
X116857394Y-32435472D01*
X116780732Y-32459526D01*
X116780231Y-32459803D01*
X116780224Y-32459807D01*
X116612218Y-32553058D01*
X116612214Y-32553060D01*
X116611709Y-32553341D01*
X116611275Y-32553712D01*
X116611267Y-32553719D01*
X116465477Y-32678877D01*
X116465471Y-32678882D01*
X116465032Y-32679260D01*
X116464676Y-32679718D01*
X116464671Y-32679725D01*
X116347059Y-32831667D01*
X116347054Y-32831674D01*
X116346704Y-32832127D01*
X116346450Y-32832642D01*
X116346449Y-32832646D01*
X116261823Y-33005167D01*
X116261821Y-33005172D01*
X116261570Y-33005684D01*
X116261428Y-33006230D01*
X116261425Y-33006240D01*
X116213261Y-33192259D01*
X116213259Y-33192266D01*
X116213115Y-33192826D01*
X116213085Y-33193409D01*
X116213085Y-33193412D01*
X116203353Y-33385307D01*
X116203353Y-33385312D01*
X116203324Y-33385890D01*
X116203411Y-33386463D01*
X116203412Y-33386467D01*
X116230403Y-33562658D01*
X116232597Y-33576974D01*
X116232798Y-33577518D01*
X116232799Y-33577520D01*
X116299532Y-33757704D01*
X116299534Y-33757709D01*
X116299736Y-33758253D01*
X116401991Y-33922307D01*
X116535177Y-34062419D01*
X116693842Y-34172853D01*
X116871488Y-34249087D01*
X117060844Y-34288000D01*
X118205419Y-34288000D01*
X118205706Y-34288000D01*
X118349821Y-34273345D01*
X118534268Y-34215474D01*
X118703291Y-34121659D01*
X118849968Y-33995740D01*
X118886406Y-33948665D01*
X118892197Y-33944690D01*
X118899220Y-33944823D01*
X118904855Y-33949016D01*
X118907000Y-33955705D01*
X118907000Y-35257582D01*
X118905021Y-35264031D01*
X118899766Y-35268262D01*
X118893043Y-35268816D01*
X118887165Y-35265505D01*
X118780225Y-35153004D01*
X118779823Y-35152581D01*
X118621158Y-35042147D01*
X118620626Y-35041918D01*
X118620623Y-35041917D01*
X118444048Y-34966143D01*
X118444047Y-34966142D01*
X118443512Y-34965913D01*
X118442949Y-34965797D01*
X118442942Y-34965795D01*
X118254721Y-34927116D01*
X118254719Y-34927115D01*
X118254156Y-34927000D01*
X117109294Y-34927000D01*
X117109010Y-34927028D01*
X117109007Y-34927029D01*
X116965756Y-34941596D01*
X116965752Y-34941596D01*
X116965179Y-34941655D01*
X116964628Y-34941827D01*
X116964627Y-34941828D01*
X116781283Y-34999353D01*
X116780732Y-34999526D01*
X116780231Y-34999803D01*
X116780224Y-34999807D01*
X116612218Y-35093058D01*
X116612214Y-35093060D01*
X116611709Y-35093341D01*
X116611275Y-35093712D01*
X116611267Y-35093719D01*
X116465477Y-35218877D01*
X116465471Y-35218882D01*
X116465032Y-35219260D01*
X116464676Y-35219718D01*
X116464671Y-35219725D01*
X116347059Y-35371667D01*
X116347054Y-35371674D01*
X116346704Y-35372127D01*
X116346450Y-35372642D01*
X116346449Y-35372646D01*
X116261628Y-35545565D01*
X116257386Y-35550259D01*
X116251303Y-35552000D01*
X115743463Y-35552000D01*
X115742461Y-35551956D01*
X115700944Y-35548323D01*
X115700940Y-35548323D01*
X115699943Y-35548236D01*
X115698973Y-35548495D01*
X115698971Y-35548496D01*
X115658708Y-35559284D01*
X115657729Y-35559501D01*
X115616694Y-35566737D01*
X115616690Y-35566738D01*
X115615705Y-35566912D01*
X115614839Y-35567411D01*
X115614836Y-35567413D01*
X115604423Y-35573425D01*
X115601651Y-35574573D01*
X115590037Y-35577685D01*
X115590032Y-35577686D01*
X115589066Y-35577946D01*
X115583419Y-35581900D01*
X115554106Y-35602424D01*
X115553260Y-35602962D01*
X115517165Y-35623803D01*
X115517162Y-35623805D01*
X115516295Y-35624306D01*
X115515650Y-35625073D01*
X115515648Y-35625076D01*
X115488862Y-35656997D01*
X115488185Y-35657737D01*
X114873985Y-36271937D01*
X114873245Y-36272614D01*
X114841326Y-36299398D01*
X114841323Y-36299400D01*
X114840556Y-36300045D01*
X114840055Y-36300912D01*
X114840053Y-36300915D01*
X114819212Y-36337010D01*
X114818674Y-36337856D01*
X114794196Y-36372816D01*
X114793936Y-36373782D01*
X114793935Y-36373787D01*
X114790823Y-36385401D01*
X114789675Y-36388173D01*
X114783663Y-36398586D01*
X114783661Y-36398589D01*
X114783162Y-36399455D01*
X114782988Y-36400440D01*
X114782987Y-36400444D01*
X114775751Y-36441479D01*
X114775534Y-36442458D01*
X114765151Y-36481212D01*
X114764486Y-36483693D01*
X114764573Y-36484690D01*
X114764573Y-36484694D01*
X114768206Y-36526211D01*
X114768250Y-36527213D01*
X114768250Y-38879037D01*
X114768206Y-38880039D01*
X114764573Y-38921555D01*
X114764573Y-38921558D01*
X114764486Y-38922557D01*
X114764745Y-38923527D01*
X114764746Y-38923528D01*
X114775534Y-38963790D01*
X114775751Y-38964769D01*
X114782445Y-39002732D01*
X114783162Y-39006795D01*
X114783663Y-39007663D01*
X114783664Y-39007665D01*
X114789674Y-39018074D01*
X114790823Y-39020847D01*
X114793935Y-39032462D01*
X114793936Y-39032464D01*
X114794196Y-39033434D01*
X114794773Y-39034258D01*
X114818673Y-39068392D01*
X114819212Y-39069238D01*
X114823187Y-39076122D01*
X114840556Y-39106205D01*
X114841322Y-39106848D01*
X114841324Y-39106850D01*
X114873253Y-39133641D01*
X114873993Y-39134319D01*
X115593806Y-39854132D01*
X115594484Y-39854872D01*
X115621274Y-39886800D01*
X115621276Y-39886802D01*
X115621920Y-39887569D01*
X115646853Y-39901964D01*
X115658885Y-39908911D01*
X115659731Y-39909450D01*
X115694691Y-39933929D01*
X115707274Y-39937300D01*
X115710048Y-39938449D01*
X115721330Y-39944963D01*
X115763355Y-39952372D01*
X115764327Y-39952588D01*
X115805568Y-39963639D01*
X115848086Y-39959918D01*
X115849088Y-39959875D01*
X118976035Y-39959875D01*
X118984167Y-39963243D01*
X119059132Y-40038208D01*
X119062500Y-40046340D01*
X119062500Y-40600125D01*
X119059820Y-40607505D01*
X119053029Y-40611445D01*
X119045292Y-40610108D01*
X119040216Y-40604119D01*
X119015467Y-40537295D01*
X119015466Y-40537294D01*
X119015264Y-40536747D01*
X118913009Y-40372693D01*
X118779823Y-40232581D01*
X118621158Y-40122147D01*
X118620626Y-40121918D01*
X118620623Y-40121917D01*
X118444048Y-40046143D01*
X118444047Y-40046142D01*
X118443512Y-40045913D01*
X118442949Y-40045797D01*
X118442942Y-40045795D01*
X118254721Y-40007116D01*
X118254719Y-40007115D01*
X118254156Y-40007000D01*
X117109294Y-40007000D01*
X117109010Y-40007028D01*
X117109007Y-40007029D01*
X116965756Y-40021596D01*
X116965752Y-40021596D01*
X116965179Y-40021655D01*
X116964628Y-40021827D01*
X116964627Y-40021828D01*
X116781283Y-40079353D01*
X116780732Y-40079526D01*
X116780231Y-40079803D01*
X116780224Y-40079807D01*
X116612218Y-40173058D01*
X116612214Y-40173060D01*
X116611709Y-40173341D01*
X116611275Y-40173712D01*
X116611267Y-40173719D01*
X116465477Y-40298877D01*
X116465471Y-40298882D01*
X116465032Y-40299260D01*
X116464676Y-40299718D01*
X116464671Y-40299725D01*
X116347059Y-40451667D01*
X116347054Y-40451674D01*
X116346704Y-40452127D01*
X116346450Y-40452642D01*
X116346449Y-40452646D01*
X116261823Y-40625167D01*
X116261821Y-40625172D01*
X116261570Y-40625684D01*
X116261428Y-40626230D01*
X116261425Y-40626240D01*
X116213261Y-40812259D01*
X116213259Y-40812266D01*
X116213115Y-40812826D01*
X116213085Y-40813409D01*
X116213085Y-40813412D01*
X116203353Y-41005307D01*
X116203353Y-41005312D01*
X116203324Y-41005890D01*
X116203411Y-41006463D01*
X116203412Y-41006467D01*
X116230674Y-41184425D01*
X116232597Y-41196974D01*
X116232798Y-41197518D01*
X116232799Y-41197520D01*
X116299532Y-41377704D01*
X116299534Y-41377709D01*
X116299736Y-41378253D01*
X116401991Y-41542307D01*
X116535177Y-41682419D01*
X116693842Y-41792853D01*
X116871488Y-41869087D01*
X116872056Y-41869203D01*
X116872057Y-41869204D01*
X117022912Y-41900205D01*
X117029866Y-41904663D01*
X117032038Y-41912633D01*
X117028306Y-41920003D01*
X117020597Y-41922970D01*
X104300561Y-41922970D01*
X104292429Y-41919602D01*
X103516368Y-41143542D01*
X103513875Y-41139811D01*
X103513000Y-41135410D01*
X103513000Y-34145963D01*
X103513044Y-34144961D01*
X103516676Y-34103444D01*
X103516764Y-34102443D01*
X103505713Y-34061202D01*
X103505497Y-34060226D01*
X103498262Y-34019194D01*
X103498088Y-34018205D01*
X103491574Y-34006923D01*
X103490425Y-34004149D01*
X103490271Y-34003575D01*
X103487054Y-33991566D01*
X103474149Y-33973136D01*
X103462575Y-33956606D01*
X103462036Y-33955760D01*
X103442967Y-33922732D01*
X103440694Y-33918795D01*
X103421644Y-33902810D01*
X103408001Y-33891362D01*
X103407261Y-33890685D01*
X102872101Y-33355525D01*
X102869500Y-33351523D01*
X102868748Y-33346814D01*
X102871676Y-33289110D01*
X102870848Y-33283703D01*
X103328161Y-33283703D01*
X103328187Y-33284248D01*
X103328187Y-33284249D01*
X103338361Y-33497857D01*
X103338362Y-33497866D01*
X103338388Y-33498404D01*
X103338514Y-33498926D01*
X103338516Y-33498935D01*
X103387054Y-33699009D01*
X103389063Y-33707290D01*
X103389289Y-33707786D01*
X103389291Y-33707790D01*
X103478128Y-33902317D01*
X103478132Y-33902324D01*
X103478354Y-33902810D01*
X103603034Y-34077899D01*
X103603429Y-34078276D01*
X103603432Y-34078279D01*
X103628775Y-34102443D01*
X103758597Y-34226227D01*
X103939420Y-34342435D01*
X104138968Y-34422322D01*
X104350028Y-34463000D01*
X104510845Y-34463000D01*
X104511118Y-34463000D01*
X104671471Y-34447688D01*
X104877709Y-34387131D01*
X105068759Y-34288638D01*
X105237717Y-34155768D01*
X105378476Y-33993324D01*
X105485948Y-33807177D01*
X105556250Y-33604054D01*
X105583767Y-33412664D01*
X107289333Y-33412664D01*
X107289369Y-33413027D01*
X107289370Y-33413041D01*
X107319372Y-33711267D01*
X107319374Y-33711281D01*
X107319411Y-33711645D01*
X107389070Y-34003949D01*
X107389204Y-34004299D01*
X107389207Y-34004306D01*
X107492849Y-34273403D01*
X107497069Y-34284360D01*
X107497247Y-34284685D01*
X107497249Y-34284689D01*
X107528895Y-34342435D01*
X107641479Y-34547875D01*
X107819723Y-34789790D01*
X107819992Y-34790068D01*
X108022835Y-34999807D01*
X108028621Y-35005789D01*
X108264446Y-35192018D01*
X108522987Y-35345152D01*
X108799633Y-35462460D01*
X109089446Y-35541848D01*
X109387255Y-35581900D01*
X109612351Y-35581900D01*
X109612533Y-35581900D01*
X109837319Y-35566852D01*
X110131787Y-35506999D01*
X110415651Y-35408431D01*
X110683843Y-35272907D01*
X110931580Y-35102846D01*
X111154439Y-34901282D01*
X111348443Y-34671812D01*
X111510131Y-34418532D01*
X111636618Y-34145960D01*
X111725646Y-33858962D01*
X111775626Y-33562658D01*
X111785667Y-33262336D01*
X111755589Y-32963355D01*
X111685930Y-32671051D01*
X111577931Y-32390640D01*
X111433521Y-32127125D01*
X111255277Y-31885210D01*
X111084721Y-31708856D01*
X111046648Y-31669489D01*
X111046646Y-31669487D01*
X111046379Y-31669211D01*
X111046074Y-31668970D01*
X110810857Y-31483221D01*
X110810854Y-31483219D01*
X110810554Y-31482982D01*
X110681829Y-31406738D01*
X110552343Y-31330043D01*
X110552337Y-31330040D01*
X110552013Y-31329848D01*
X110551657Y-31329697D01*
X110551651Y-31329694D01*
X110275722Y-31212690D01*
X110275715Y-31212687D01*
X110275367Y-31212540D01*
X110112773Y-31168001D01*
X109985923Y-31133253D01*
X109985921Y-31133252D01*
X109985554Y-31133152D01*
X109985186Y-31133102D01*
X109985174Y-31133100D01*
X109688128Y-31093151D01*
X109688120Y-31093150D01*
X109687745Y-31093100D01*
X109462467Y-31093100D01*
X109462295Y-31093111D01*
X109462280Y-31093112D01*
X109238064Y-31108122D01*
X109238058Y-31108122D01*
X109237681Y-31108148D01*
X109237315Y-31108222D01*
X109237310Y-31108223D01*
X108943584Y-31167925D01*
X108943575Y-31167927D01*
X108943213Y-31168001D01*
X108942856Y-31168124D01*
X108942852Y-31168126D01*
X108659713Y-31266442D01*
X108659705Y-31266445D01*
X108659349Y-31266569D01*
X108659008Y-31266741D01*
X108659004Y-31266743D01*
X108391503Y-31401917D01*
X108391489Y-31401924D01*
X108391157Y-31402093D01*
X108390848Y-31402305D01*
X108390833Y-31402314D01*
X108143741Y-31571933D01*
X108143734Y-31571938D01*
X108143420Y-31572154D01*
X108143144Y-31572402D01*
X108143132Y-31572413D01*
X107920843Y-31773462D01*
X107920835Y-31773469D01*
X107920561Y-31773718D01*
X107920321Y-31774001D01*
X107920315Y-31774008D01*
X107726802Y-32002897D01*
X107726795Y-32002906D01*
X107726557Y-32003188D01*
X107726356Y-32003502D01*
X107726350Y-32003511D01*
X107565072Y-32256149D01*
X107565068Y-32256156D01*
X107564869Y-32256468D01*
X107564715Y-32256797D01*
X107564712Y-32256805D01*
X107438538Y-32528702D01*
X107438533Y-32528712D01*
X107438382Y-32529040D01*
X107438272Y-32529393D01*
X107438271Y-32529397D01*
X107349467Y-32815670D01*
X107349463Y-32815686D01*
X107349354Y-32816038D01*
X107349292Y-32816401D01*
X107349289Y-32816417D01*
X107299436Y-33111968D01*
X107299434Y-33111983D01*
X107299374Y-33112342D01*
X107299361Y-33112711D01*
X107299361Y-33112718D01*
X107289345Y-33412289D01*
X107289345Y-33412297D01*
X107289333Y-33412664D01*
X105583767Y-33412664D01*
X105586839Y-33391297D01*
X105576612Y-33176596D01*
X105525937Y-32967710D01*
X105490845Y-32890870D01*
X105436871Y-32772682D01*
X105436869Y-32772679D01*
X105436646Y-32772190D01*
X105311966Y-32597101D01*
X105311569Y-32596723D01*
X105311567Y-32596720D01*
X105227131Y-32516212D01*
X105156403Y-32448773D01*
X105155940Y-32448475D01*
X105155937Y-32448473D01*
X104976045Y-32332864D01*
X104976046Y-32332864D01*
X104975580Y-32332565D01*
X104975072Y-32332361D01*
X104975067Y-32332359D01*
X104829401Y-32274043D01*
X104776032Y-32252678D01*
X104729459Y-32243702D01*
X104565513Y-32212104D01*
X104565510Y-32212103D01*
X104564972Y-32212000D01*
X104403882Y-32212000D01*
X104403628Y-32212024D01*
X104403611Y-32212025D01*
X104244073Y-32227259D01*
X104244062Y-32227261D01*
X104243529Y-32227312D01*
X104243009Y-32227464D01*
X104243002Y-32227466D01*
X104037811Y-32287716D01*
X104037808Y-32287717D01*
X104037291Y-32287869D01*
X104036814Y-32288114D01*
X104036811Y-32288116D01*
X103846723Y-32386113D01*
X103846718Y-32386115D01*
X103846241Y-32386362D01*
X103845819Y-32386693D01*
X103845814Y-32386697D01*
X103677705Y-32518899D01*
X103677698Y-32518905D01*
X103677283Y-32519232D01*
X103676931Y-32519637D01*
X103676929Y-32519640D01*
X103536882Y-32681261D01*
X103536874Y-32681271D01*
X103536524Y-32681676D01*
X103536253Y-32682145D01*
X103536249Y-32682151D01*
X103429324Y-32867351D01*
X103429322Y-32867355D01*
X103429052Y-32867823D01*
X103428875Y-32868332D01*
X103428875Y-32868334D01*
X103358927Y-33070432D01*
X103358924Y-33070440D01*
X103358750Y-33070946D01*
X103358673Y-33071477D01*
X103358672Y-33071484D01*
X103328238Y-33283161D01*
X103328237Y-33283170D01*
X103328161Y-33283703D01*
X102870848Y-33283703D01*
X102842403Y-33098026D01*
X102775264Y-32916747D01*
X102673009Y-32752693D01*
X102539823Y-32612581D01*
X102522760Y-32600705D01*
X102470508Y-32564337D01*
X102381158Y-32502147D01*
X102380626Y-32501918D01*
X102380623Y-32501917D01*
X102204048Y-32426143D01*
X102204047Y-32426142D01*
X102203512Y-32425913D01*
X102202949Y-32425797D01*
X102202942Y-32425795D01*
X102014721Y-32387116D01*
X102014719Y-32387115D01*
X102014156Y-32387000D01*
X100869294Y-32387000D01*
X100869010Y-32387028D01*
X100869007Y-32387029D01*
X100725756Y-32401596D01*
X100725752Y-32401596D01*
X100725179Y-32401655D01*
X100724628Y-32401827D01*
X100724627Y-32401828D01*
X100575960Y-32448473D01*
X100540732Y-32459526D01*
X100540231Y-32459803D01*
X100540224Y-32459807D01*
X100372218Y-32553058D01*
X100372214Y-32553060D01*
X100371709Y-32553341D01*
X100371275Y-32553712D01*
X100371267Y-32553719D01*
X100225477Y-32678877D01*
X100225471Y-32678882D01*
X100225032Y-32679260D01*
X100224676Y-32679718D01*
X100224671Y-32679725D01*
X100188594Y-32726334D01*
X100182803Y-32730310D01*
X100175780Y-32730177D01*
X100170145Y-32725984D01*
X100168000Y-32719295D01*
X100168000Y-31417418D01*
X100169979Y-31410969D01*
X100175234Y-31406738D01*
X100181957Y-31406184D01*
X100187835Y-31409495D01*
X100257917Y-31483221D01*
X100295177Y-31522419D01*
X100453842Y-31632853D01*
X100631488Y-31709087D01*
X100820844Y-31748000D01*
X101965419Y-31748000D01*
X101965706Y-31748000D01*
X102109821Y-31733345D01*
X102294268Y-31675474D01*
X102463291Y-31581659D01*
X102609968Y-31455740D01*
X102728296Y-31302873D01*
X102813430Y-31129316D01*
X102861885Y-30942174D01*
X102869222Y-30797500D01*
X104371841Y-30797500D01*
X104392437Y-31032908D01*
X104392564Y-31033384D01*
X104392566Y-31033392D01*
X104453465Y-31260673D01*
X104453467Y-31260680D01*
X104453597Y-31261163D01*
X104453806Y-31261612D01*
X104453809Y-31261619D01*
X104544330Y-31455740D01*
X104553465Y-31475330D01*
X104553754Y-31475743D01*
X104553756Y-31475746D01*
X104688716Y-31668489D01*
X104688719Y-31668492D01*
X104689005Y-31668901D01*
X104856099Y-31835995D01*
X105049670Y-31971535D01*
X105263837Y-32071403D01*
X105492092Y-32132563D01*
X105727500Y-32153159D01*
X105962908Y-32132563D01*
X106191163Y-32071403D01*
X106405330Y-31971535D01*
X106598901Y-31835995D01*
X106765995Y-31668901D01*
X106901535Y-31475330D01*
X107001403Y-31261163D01*
X107062563Y-31032908D01*
X107083159Y-30797500D01*
X107062563Y-30562092D01*
X107001403Y-30333837D01*
X106974626Y-30276415D01*
X106910886Y-30139725D01*
X106901535Y-30119671D01*
X106765995Y-29926099D01*
X106598901Y-29759005D01*
X106598492Y-29758719D01*
X106598489Y-29758716D01*
X106405746Y-29623756D01*
X106405743Y-29623754D01*
X106405330Y-29623465D01*
X106404875Y-29623253D01*
X106404872Y-29623251D01*
X106191619Y-29523809D01*
X106191612Y-29523806D01*
X106191163Y-29523597D01*
X106190680Y-29523467D01*
X106190673Y-29523465D01*
X105963392Y-29462566D01*
X105963384Y-29462564D01*
X105962908Y-29462437D01*
X105962408Y-29462393D01*
X105962407Y-29462393D01*
X105728003Y-29441885D01*
X105727500Y-29441841D01*
X105726997Y-29441885D01*
X105492592Y-29462393D01*
X105492589Y-29462393D01*
X105492092Y-29462437D01*
X105491617Y-29462564D01*
X105491607Y-29462566D01*
X105264326Y-29523465D01*
X105264315Y-29523468D01*
X105263837Y-29523597D01*
X105263390Y-29523805D01*
X105263380Y-29523809D01*
X105050128Y-29623251D01*
X105050119Y-29623255D01*
X105049671Y-29623465D01*
X105049262Y-29623751D01*
X105049254Y-29623756D01*
X104856510Y-29758716D01*
X104856501Y-29758723D01*
X104856099Y-29759005D01*
X104855752Y-29759351D01*
X104855746Y-29759357D01*
X104689357Y-29925746D01*
X104689351Y-29925752D01*
X104689005Y-29926099D01*
X104688723Y-29926501D01*
X104688716Y-29926510D01*
X104553756Y-30119254D01*
X104553751Y-30119262D01*
X104553465Y-30119671D01*
X104553255Y-30120119D01*
X104553251Y-30120128D01*
X104453809Y-30333380D01*
X104453805Y-30333390D01*
X104453597Y-30333837D01*
X104453468Y-30334315D01*
X104453465Y-30334326D01*
X104392566Y-30561607D01*
X104392564Y-30561617D01*
X104392437Y-30562092D01*
X104392393Y-30562589D01*
X104392393Y-30562592D01*
X104384447Y-30653412D01*
X104371841Y-30797500D01*
X102869222Y-30797500D01*
X102871676Y-30749110D01*
X102842403Y-30558026D01*
X102775264Y-30376747D01*
X102673009Y-30212693D01*
X102539823Y-30072581D01*
X102381158Y-29962147D01*
X102380626Y-29961918D01*
X102380623Y-29961917D01*
X102204048Y-29886143D01*
X102204047Y-29886142D01*
X102203512Y-29885913D01*
X102202949Y-29885797D01*
X102202942Y-29885795D01*
X102014721Y-29847116D01*
X102014719Y-29847115D01*
X102014156Y-29847000D01*
X100869294Y-29847000D01*
X100869010Y-29847028D01*
X100869007Y-29847029D01*
X100725756Y-29861596D01*
X100725752Y-29861596D01*
X100725179Y-29861655D01*
X100724628Y-29861827D01*
X100724627Y-29861828D01*
X100541283Y-29919353D01*
X100540732Y-29919526D01*
X100540231Y-29919803D01*
X100540224Y-29919807D01*
X100372218Y-30013058D01*
X100372214Y-30013060D01*
X100371709Y-30013341D01*
X100371275Y-30013712D01*
X100371267Y-30013719D01*
X100225477Y-30138877D01*
X100225471Y-30138882D01*
X100225032Y-30139260D01*
X100224676Y-30139718D01*
X100224671Y-30139725D01*
X100188594Y-30186334D01*
X100182803Y-30190310D01*
X100175780Y-30190177D01*
X100170145Y-30185984D01*
X100168000Y-30179295D01*
X100168000Y-28877418D01*
X100169979Y-28870969D01*
X100175234Y-28866738D01*
X100181957Y-28866184D01*
X100187835Y-28869495D01*
X100270183Y-28956125D01*
X100295177Y-28982419D01*
X100453842Y-29092853D01*
X100631488Y-29169087D01*
X100820844Y-29208000D01*
X101965419Y-29208000D01*
X101965706Y-29208000D01*
X102109821Y-29193345D01*
X102294268Y-29135474D01*
X102463291Y-29041659D01*
X102609968Y-28915740D01*
X102728296Y-28762873D01*
X102813430Y-28589316D01*
X102861885Y-28402174D01*
X102871676Y-28209110D01*
X102842403Y-28018026D01*
X102775264Y-27836747D01*
X102673009Y-27672693D01*
X102539823Y-27532581D01*
X102381158Y-27422147D01*
X102380626Y-27421918D01*
X102380623Y-27421917D01*
X102204048Y-27346143D01*
X102204047Y-27346142D01*
X102203512Y-27345913D01*
X102202949Y-27345797D01*
X102202942Y-27345795D01*
X102154130Y-27335765D01*
X102147176Y-27331307D01*
X102145004Y-27323337D01*
X102148736Y-27315967D01*
X102156445Y-27313000D01*
X109397910Y-27313000D01*
X109406042Y-27316368D01*
G37*
%TD.AperFunction*%
%TA.AperFunction,NonConductor*%
G36*
X100029708Y-41304892D02*
G01*
X100034784Y-41310881D01*
X100059532Y-41377704D01*
X100059534Y-41377709D01*
X100059736Y-41378253D01*
X100161991Y-41542307D01*
X100295177Y-41682419D01*
X100453842Y-41792853D01*
X100555779Y-41836598D01*
X100561250Y-41841499D01*
X100562638Y-41848714D01*
X100559375Y-41855297D01*
X100032132Y-42382541D01*
X100026244Y-42385688D01*
X100019599Y-42385034D01*
X100014438Y-42380798D01*
X100012500Y-42374409D01*
X100012500Y-41314875D01*
X100015180Y-41307495D01*
X100021971Y-41303555D01*
X100029708Y-41304892D01*
G37*
%TD.AperFunction*%
%TA.AperFunction,NonConductor*%
G36*
X118899755Y-41572581D02*
G01*
X119059132Y-41731958D01*
X119062500Y-41740090D01*
X119062500Y-42374410D01*
X119059132Y-42382542D01*
X119051000Y-42385910D01*
X119042868Y-42382542D01*
X118689037Y-42028711D01*
X118688359Y-42027971D01*
X118661570Y-41996044D01*
X118661568Y-41996042D01*
X118660925Y-41995276D01*
X118660054Y-41994773D01*
X118623958Y-41973932D01*
X118623112Y-41973393D01*
X118588978Y-41949493D01*
X118588154Y-41948916D01*
X118587184Y-41948656D01*
X118587182Y-41948655D01*
X118575567Y-41945543D01*
X118572794Y-41944394D01*
X118562385Y-41938384D01*
X118562383Y-41938383D01*
X118561515Y-41937882D01*
X118560527Y-41937707D01*
X118560525Y-41937707D01*
X118519489Y-41930471D01*
X118518510Y-41930254D01*
X118478248Y-41919466D01*
X118478247Y-41919465D01*
X118477277Y-41919206D01*
X118476278Y-41919293D01*
X118476275Y-41919293D01*
X118434759Y-41922926D01*
X118433757Y-41922970D01*
X118285255Y-41922970D01*
X118277332Y-41919805D01*
X118273770Y-41912052D01*
X118276529Y-41903979D01*
X118284092Y-41900029D01*
X118287493Y-41899683D01*
X118349821Y-41893345D01*
X118534268Y-41835474D01*
X118703291Y-41741659D01*
X118849968Y-41615740D01*
X118882529Y-41573673D01*
X118887720Y-41569896D01*
X118894128Y-41569489D01*
X118899755Y-41572581D01*
G37*
%TD.AperFunction*%
%TA.AperFunction,NonConductor*%
G36*
X100301001Y-44226473D02*
G01*
X100335232Y-44250298D01*
X100453842Y-44332853D01*
X100555779Y-44376597D01*
X100561250Y-44381498D01*
X100562638Y-44388713D01*
X100559375Y-44395296D01*
X100467659Y-44487012D01*
X100461971Y-44490117D01*
X100455508Y-44489655D01*
X100450323Y-44485773D01*
X100330483Y-44325687D01*
X100329597Y-44324307D01*
X100284337Y-44241420D01*
X100283096Y-44233968D01*
X100286751Y-44227352D01*
X100293723Y-44224434D01*
X100301001Y-44226473D01*
G37*
%TD.AperFunction*%
%TA.AperFunction,NonConductor*%
G36*
X118793392Y-44216739D02*
G01*
X118797438Y-44223446D01*
X118796249Y-44231188D01*
X118745402Y-44324307D01*
X118744515Y-44325688D01*
X118624677Y-44485772D01*
X118619490Y-44489655D01*
X118613026Y-44490117D01*
X118607339Y-44487012D01*
X118518409Y-44398082D01*
X118515100Y-44391113D01*
X118516939Y-44383621D01*
X118523096Y-44378978D01*
X118534268Y-44375474D01*
X118703291Y-44281659D01*
X118778667Y-44216950D01*
X118785990Y-44214178D01*
X118793392Y-44216739D01*
G37*
%TD.AperFunction*%
%TA.AperFunction,NonConductor*%
G36*
X102859130Y-41184425D02*
G01*
X102862000Y-41192026D01*
X102862000Y-41260287D01*
X102861956Y-41261289D01*
X102858323Y-41302805D01*
X102858323Y-41302808D01*
X102858236Y-41303807D01*
X102858495Y-41304777D01*
X102858496Y-41304778D01*
X102869284Y-41345040D01*
X102869501Y-41346019D01*
X102876912Y-41388045D01*
X102877413Y-41388913D01*
X102877414Y-41388915D01*
X102883424Y-41399324D01*
X102884573Y-41402097D01*
X102887685Y-41413712D01*
X102887686Y-41413714D01*
X102887946Y-41414684D01*
X102888523Y-41415508D01*
X102912423Y-41449642D01*
X102912962Y-41450488D01*
X102919813Y-41462353D01*
X102934306Y-41487455D01*
X102935072Y-41488098D01*
X102935074Y-41488100D01*
X102967003Y-41514891D01*
X102967743Y-41515569D01*
X103920406Y-42468233D01*
X103921084Y-42468973D01*
X103947869Y-42500895D01*
X103947871Y-42500897D01*
X103948515Y-42501664D01*
X103949386Y-42502166D01*
X103949385Y-42502166D01*
X103985481Y-42523006D01*
X103986327Y-42523545D01*
X104021286Y-42548023D01*
X104033868Y-42551394D01*
X104036638Y-42552541D01*
X104047925Y-42559058D01*
X104089961Y-42566469D01*
X104090933Y-42566685D01*
X104132163Y-42577733D01*
X104141263Y-42576936D01*
X104149050Y-42579108D01*
X104153484Y-42585871D01*
X104152370Y-42593880D01*
X104146258Y-42599176D01*
X104037295Y-42639532D01*
X104037286Y-42639536D01*
X104036747Y-42639736D01*
X104036252Y-42640044D01*
X104036249Y-42640046D01*
X103873191Y-42741680D01*
X103873187Y-42741683D01*
X103872693Y-42741991D01*
X103872272Y-42742390D01*
X103872267Y-42742395D01*
X103733004Y-42874774D01*
X103732999Y-42874778D01*
X103732581Y-42875177D01*
X103732253Y-42875647D01*
X103732248Y-42875654D01*
X103651181Y-42992127D01*
X103622147Y-43033842D01*
X103621920Y-43034369D01*
X103621917Y-43034376D01*
X103546143Y-43210951D01*
X103545913Y-43211488D01*
X103545798Y-43212047D01*
X103545795Y-43212057D01*
X103514836Y-43362712D01*
X103507000Y-43400844D01*
X103507000Y-43401424D01*
X103507000Y-43982910D01*
X103503632Y-43991042D01*
X102441042Y-45053632D01*
X102432910Y-45057000D01*
X101173590Y-45057000D01*
X101168079Y-45055593D01*
X101146357Y-45043732D01*
X101121621Y-45030225D01*
X100956247Y-44939923D01*
X100951414Y-44934855D01*
X100950417Y-44927923D01*
X100953623Y-44921702D01*
X101423958Y-44451368D01*
X101432090Y-44448000D01*
X101965419Y-44448000D01*
X101965706Y-44448000D01*
X102109821Y-44433345D01*
X102294268Y-44375474D01*
X102463291Y-44281659D01*
X102609968Y-44155740D01*
X102728296Y-44002873D01*
X102813430Y-43829316D01*
X102861885Y-43642174D01*
X102871676Y-43449110D01*
X102842403Y-43258026D01*
X102775264Y-43076747D01*
X102673009Y-42912693D01*
X102539823Y-42772581D01*
X102381158Y-42662147D01*
X102380626Y-42661918D01*
X102380623Y-42661917D01*
X102204048Y-42586143D01*
X102204047Y-42586142D01*
X102203512Y-42585913D01*
X102202949Y-42585797D01*
X102202942Y-42585795D01*
X102014721Y-42547116D01*
X102014719Y-42547115D01*
X102014156Y-42547000D01*
X100869294Y-42547000D01*
X100869010Y-42547028D01*
X100869007Y-42547029D01*
X100811295Y-42552897D01*
X100804487Y-42551475D01*
X100799744Y-42546389D01*
X100798800Y-42539499D01*
X100801998Y-42533326D01*
X101423957Y-41911368D01*
X101432090Y-41908000D01*
X101965419Y-41908000D01*
X101965706Y-41908000D01*
X102109821Y-41893345D01*
X102294268Y-41835474D01*
X102463291Y-41741659D01*
X102609968Y-41615740D01*
X102728296Y-41462873D01*
X102813430Y-41289316D01*
X102837489Y-41196396D01*
X102839367Y-41189143D01*
X102844051Y-41182505D01*
X102851953Y-41180618D01*
X102859130Y-41184425D01*
G37*
%TD.AperFunction*%
%TA.AperFunction,NonConductor*%
G36*
X116858351Y-42576744D02*
G01*
X116862227Y-42583729D01*
X116860619Y-42591553D01*
X116854303Y-42596442D01*
X116780732Y-42619526D01*
X116780231Y-42619803D01*
X116780224Y-42619807D01*
X116612218Y-42713058D01*
X116612214Y-42713060D01*
X116611709Y-42713341D01*
X116611275Y-42713712D01*
X116611267Y-42713719D01*
X116465477Y-42838877D01*
X116465471Y-42838882D01*
X116465032Y-42839260D01*
X116464676Y-42839718D01*
X116464671Y-42839725D01*
X116347059Y-42991667D01*
X116347054Y-42991674D01*
X116346704Y-42992127D01*
X116346450Y-42992642D01*
X116346449Y-42992646D01*
X116261823Y-43165167D01*
X116261821Y-43165172D01*
X116261570Y-43165684D01*
X116261428Y-43166230D01*
X116261425Y-43166240D01*
X116213261Y-43352259D01*
X116213259Y-43352266D01*
X116213115Y-43352826D01*
X116213085Y-43353409D01*
X116213085Y-43353412D01*
X116203353Y-43545307D01*
X116203353Y-43545312D01*
X116203324Y-43545890D01*
X116203411Y-43546463D01*
X116203412Y-43546467D01*
X116218160Y-43642740D01*
X116232597Y-43736974D01*
X116232798Y-43737518D01*
X116232799Y-43737520D01*
X116299532Y-43917704D01*
X116299534Y-43917709D01*
X116299736Y-43918253D01*
X116401991Y-44082307D01*
X116535177Y-44222419D01*
X116693842Y-44332853D01*
X116871488Y-44409087D01*
X117060844Y-44448000D01*
X117642909Y-44448000D01*
X117651041Y-44451368D01*
X118121372Y-44921699D01*
X118124581Y-44927924D01*
X118123584Y-44934856D01*
X118118751Y-44939924D01*
X117949771Y-45032194D01*
X117928643Y-45043732D01*
X117906921Y-45055593D01*
X117901410Y-45057000D01*
X116642090Y-45057000D01*
X116633958Y-45053632D01*
X115571368Y-43991042D01*
X115568000Y-43982910D01*
X115568000Y-43449581D01*
X115568000Y-43449294D01*
X115553345Y-43305179D01*
X115495474Y-43120732D01*
X115401659Y-42951709D01*
X115336367Y-42875654D01*
X115276122Y-42805477D01*
X115275740Y-42805032D01*
X115275274Y-42804671D01*
X115123332Y-42687059D01*
X115123330Y-42687057D01*
X115122873Y-42686704D01*
X115053897Y-42652869D01*
X114949832Y-42601823D01*
X114949831Y-42601822D01*
X114949316Y-42601570D01*
X114948765Y-42601427D01*
X114948759Y-42601425D01*
X114930133Y-42596603D01*
X114923495Y-42591919D01*
X114921608Y-42584017D01*
X114925415Y-42576840D01*
X114933016Y-42573970D01*
X116850860Y-42573970D01*
X116858351Y-42576744D01*
G37*
%TD.AperFunction*%
%TA.AperFunction,NonConductor*%
G36*
X103571376Y-44856937D02*
G01*
X103576020Y-44863096D01*
X103579526Y-44874268D01*
X103579806Y-44874774D01*
X103579809Y-44874779D01*
X103628017Y-44961633D01*
X103673341Y-45043291D01*
X103673716Y-45043728D01*
X103673719Y-45043732D01*
X103739042Y-45119823D01*
X103799260Y-45189968D01*
X103842136Y-45223157D01*
X103846112Y-45228947D01*
X103845979Y-45235969D01*
X103841786Y-45241605D01*
X103835097Y-45243750D01*
X103199339Y-45243750D01*
X103191207Y-45240382D01*
X103187839Y-45232250D01*
X103191207Y-45224118D01*
X103372544Y-45042781D01*
X103556917Y-44858407D01*
X103563884Y-44855099D01*
X103571376Y-44856937D01*
G37*
%TD.AperFunction*%
%TA.AperFunction,NonConductor*%
G36*
X106697537Y-42576650D02*
G01*
X106701477Y-42583441D01*
X106700140Y-42591178D01*
X106694151Y-42596254D01*
X106577295Y-42639532D01*
X106577286Y-42639536D01*
X106576747Y-42639736D01*
X106576252Y-42640044D01*
X106576249Y-42640046D01*
X106413191Y-42741680D01*
X106413187Y-42741683D01*
X106412693Y-42741991D01*
X106412272Y-42742390D01*
X106412267Y-42742395D01*
X106273004Y-42874774D01*
X106272999Y-42874778D01*
X106272581Y-42875177D01*
X106272253Y-42875647D01*
X106272248Y-42875654D01*
X106191181Y-42992127D01*
X106162147Y-43033842D01*
X106161920Y-43034369D01*
X106161917Y-43034376D01*
X106086143Y-43210951D01*
X106085913Y-43211488D01*
X106085798Y-43212047D01*
X106085795Y-43212057D01*
X106054836Y-43362712D01*
X106047000Y-43400844D01*
X106047000Y-44545706D01*
X106061655Y-44689821D01*
X106119526Y-44874268D01*
X106119805Y-44874771D01*
X106119807Y-44874775D01*
X106145852Y-44921699D01*
X106213341Y-45043291D01*
X106213716Y-45043728D01*
X106213719Y-45043732D01*
X106332523Y-45182120D01*
X106335289Y-45190048D01*
X106331929Y-45197743D01*
X106289291Y-45240382D01*
X106285560Y-45242875D01*
X106281159Y-45243750D01*
X105080837Y-45243750D01*
X105074388Y-45241771D01*
X105070157Y-45236516D01*
X105069603Y-45229793D01*
X105072914Y-45223915D01*
X105100447Y-45197743D01*
X105182419Y-45119823D01*
X105292853Y-44961158D01*
X105369087Y-44783512D01*
X105408000Y-44594156D01*
X105408000Y-43449294D01*
X105393345Y-43305179D01*
X105335474Y-43120732D01*
X105241659Y-42951709D01*
X105176367Y-42875654D01*
X105116122Y-42805477D01*
X105115740Y-42805032D01*
X105115274Y-42804671D01*
X104963332Y-42687059D01*
X104963330Y-42687057D01*
X104962873Y-42686704D01*
X104893897Y-42652869D01*
X104789832Y-42601823D01*
X104789831Y-42601822D01*
X104789316Y-42601570D01*
X104788765Y-42601427D01*
X104788759Y-42601425D01*
X104770133Y-42596603D01*
X104763495Y-42591919D01*
X104761608Y-42584017D01*
X104765415Y-42576840D01*
X104773016Y-42573970D01*
X106690157Y-42573970D01*
X106697537Y-42576650D01*
G37*
%TD.AperFunction*%
%TA.AperFunction,NonConductor*%
G36*
X109237537Y-42576650D02*
G01*
X109241477Y-42583441D01*
X109240140Y-42591178D01*
X109234151Y-42596254D01*
X109117295Y-42639532D01*
X109117286Y-42639536D01*
X109116747Y-42639736D01*
X109116252Y-42640044D01*
X109116249Y-42640046D01*
X108953191Y-42741680D01*
X108953187Y-42741683D01*
X108952693Y-42741991D01*
X108952272Y-42742390D01*
X108952267Y-42742395D01*
X108813004Y-42874774D01*
X108812999Y-42874778D01*
X108812581Y-42875177D01*
X108812253Y-42875647D01*
X108812248Y-42875654D01*
X108731181Y-42992127D01*
X108702147Y-43033842D01*
X108701920Y-43034369D01*
X108701917Y-43034376D01*
X108626143Y-43210951D01*
X108625913Y-43211488D01*
X108625798Y-43212047D01*
X108625795Y-43212057D01*
X108594836Y-43362712D01*
X108587000Y-43400844D01*
X108587000Y-44545706D01*
X108601655Y-44689821D01*
X108659526Y-44874268D01*
X108659805Y-44874771D01*
X108659807Y-44874775D01*
X108685852Y-44921699D01*
X108753341Y-45043291D01*
X108753716Y-45043728D01*
X108753719Y-45043732D01*
X108819042Y-45119823D01*
X108879260Y-45189968D01*
X108922136Y-45223157D01*
X108926112Y-45228947D01*
X108925979Y-45235969D01*
X108921786Y-45241605D01*
X108915097Y-45243750D01*
X107620837Y-45243750D01*
X107614388Y-45241771D01*
X107610157Y-45236516D01*
X107609603Y-45229793D01*
X107612914Y-45223915D01*
X107640447Y-45197743D01*
X107722419Y-45119823D01*
X107832853Y-44961158D01*
X107909087Y-44783512D01*
X107948000Y-44594156D01*
X107948000Y-43449294D01*
X107933345Y-43305179D01*
X107875474Y-43120732D01*
X107781659Y-42951709D01*
X107716367Y-42875654D01*
X107656122Y-42805477D01*
X107655740Y-42805032D01*
X107655274Y-42804671D01*
X107503332Y-42687059D01*
X107503330Y-42687057D01*
X107502873Y-42686704D01*
X107433897Y-42652869D01*
X107329832Y-42601823D01*
X107329831Y-42601822D01*
X107329316Y-42601570D01*
X107328765Y-42601427D01*
X107328759Y-42601425D01*
X107310133Y-42596603D01*
X107303495Y-42591919D01*
X107301608Y-42584017D01*
X107305415Y-42576840D01*
X107313016Y-42573970D01*
X109230157Y-42573970D01*
X109237537Y-42576650D01*
G37*
%TD.AperFunction*%
%TA.AperFunction,NonConductor*%
G36*
X111777537Y-42576650D02*
G01*
X111781477Y-42583441D01*
X111780140Y-42591178D01*
X111774151Y-42596254D01*
X111657295Y-42639532D01*
X111657286Y-42639536D01*
X111656747Y-42639736D01*
X111656252Y-42640044D01*
X111656249Y-42640046D01*
X111493191Y-42741680D01*
X111493187Y-42741683D01*
X111492693Y-42741991D01*
X111492272Y-42742390D01*
X111492267Y-42742395D01*
X111353004Y-42874774D01*
X111352999Y-42874778D01*
X111352581Y-42875177D01*
X111352253Y-42875647D01*
X111352248Y-42875654D01*
X111271181Y-42992127D01*
X111242147Y-43033842D01*
X111241920Y-43034369D01*
X111241917Y-43034376D01*
X111166143Y-43210951D01*
X111165913Y-43211488D01*
X111165798Y-43212047D01*
X111165795Y-43212057D01*
X111134836Y-43362712D01*
X111127000Y-43400844D01*
X111127000Y-44545706D01*
X111141655Y-44689821D01*
X111199526Y-44874268D01*
X111199805Y-44874771D01*
X111199807Y-44874775D01*
X111225852Y-44921699D01*
X111293341Y-45043291D01*
X111293716Y-45043728D01*
X111293719Y-45043732D01*
X111359042Y-45119823D01*
X111419260Y-45189968D01*
X111462136Y-45223157D01*
X111466112Y-45228947D01*
X111465979Y-45235969D01*
X111461786Y-45241605D01*
X111455097Y-45243750D01*
X110160837Y-45243750D01*
X110154388Y-45241771D01*
X110150157Y-45236516D01*
X110149603Y-45229793D01*
X110152914Y-45223915D01*
X110180447Y-45197743D01*
X110262419Y-45119823D01*
X110372853Y-44961158D01*
X110449087Y-44783512D01*
X110488000Y-44594156D01*
X110488000Y-43449294D01*
X110473345Y-43305179D01*
X110415474Y-43120732D01*
X110321659Y-42951709D01*
X110256367Y-42875654D01*
X110196122Y-42805477D01*
X110195740Y-42805032D01*
X110195274Y-42804671D01*
X110043332Y-42687059D01*
X110043330Y-42687057D01*
X110042873Y-42686704D01*
X109973897Y-42652869D01*
X109869832Y-42601823D01*
X109869831Y-42601822D01*
X109869316Y-42601570D01*
X109868765Y-42601427D01*
X109868759Y-42601425D01*
X109850133Y-42596603D01*
X109843495Y-42591919D01*
X109841608Y-42584017D01*
X109845415Y-42576840D01*
X109853016Y-42573970D01*
X111770157Y-42573970D01*
X111777537Y-42576650D01*
G37*
%TD.AperFunction*%
%TA.AperFunction,NonConductor*%
G36*
X114317537Y-42576650D02*
G01*
X114321477Y-42583441D01*
X114320140Y-42591178D01*
X114314151Y-42596254D01*
X114197295Y-42639532D01*
X114197286Y-42639536D01*
X114196747Y-42639736D01*
X114196252Y-42640044D01*
X114196249Y-42640046D01*
X114033191Y-42741680D01*
X114033187Y-42741683D01*
X114032693Y-42741991D01*
X114032272Y-42742390D01*
X114032267Y-42742395D01*
X113893004Y-42874774D01*
X113892999Y-42874778D01*
X113892581Y-42875177D01*
X113892253Y-42875647D01*
X113892248Y-42875654D01*
X113811181Y-42992127D01*
X113782147Y-43033842D01*
X113781920Y-43034369D01*
X113781917Y-43034376D01*
X113706143Y-43210951D01*
X113705913Y-43211488D01*
X113705798Y-43212047D01*
X113705795Y-43212057D01*
X113674836Y-43362712D01*
X113667000Y-43400844D01*
X113667000Y-44545706D01*
X113681655Y-44689821D01*
X113739526Y-44874268D01*
X113739805Y-44874771D01*
X113739807Y-44874775D01*
X113765852Y-44921699D01*
X113833341Y-45043291D01*
X113833716Y-45043728D01*
X113833719Y-45043732D01*
X113899042Y-45119823D01*
X113959260Y-45189968D01*
X114002136Y-45223157D01*
X114006112Y-45228947D01*
X114005979Y-45235969D01*
X114001786Y-45241605D01*
X113995097Y-45243750D01*
X113382590Y-45243750D01*
X113374458Y-45240382D01*
X112973125Y-44839049D01*
X112969964Y-44833089D01*
X112970689Y-44826382D01*
X112989087Y-44783512D01*
X113028000Y-44594156D01*
X113028000Y-43449294D01*
X113013345Y-43305179D01*
X112955474Y-43120732D01*
X112861659Y-42951709D01*
X112796367Y-42875654D01*
X112736122Y-42805477D01*
X112735740Y-42805032D01*
X112735274Y-42804671D01*
X112583332Y-42687059D01*
X112583330Y-42687057D01*
X112582873Y-42686704D01*
X112513897Y-42652869D01*
X112409832Y-42601823D01*
X112409831Y-42601822D01*
X112409316Y-42601570D01*
X112408765Y-42601427D01*
X112408759Y-42601425D01*
X112390133Y-42596603D01*
X112383495Y-42591919D01*
X112381608Y-42584017D01*
X112385415Y-42576840D01*
X112393016Y-42573970D01*
X114310157Y-42573970D01*
X114317537Y-42576650D01*
G37*
%TD.AperFunction*%
%TA.AperFunction,NonConductor*%
G36*
X115515297Y-44855623D02*
G01*
X115883792Y-45224118D01*
X115887160Y-45232250D01*
X115883792Y-45240382D01*
X115875660Y-45243750D01*
X115240837Y-45243750D01*
X115234388Y-45241771D01*
X115230157Y-45236516D01*
X115229603Y-45229793D01*
X115232914Y-45223915D01*
X115260447Y-45197743D01*
X115342419Y-45119823D01*
X115452853Y-44961158D01*
X115496599Y-44859217D01*
X115501499Y-44853748D01*
X115508714Y-44852360D01*
X115515297Y-44855623D01*
G37*
%TD.AperFunction*%
M02*
