M48
; DRILL file {KiCad (7.0.0)} date Thu Aug 24 19:01:00 2023
; FORMAT={-:-/ absolute / inch / decimal}
; #@! TF.CreationDate,2023-08-24T19:01:00+02:00
; #@! TF.GenerationSoftware,Kicad,Pcbnew,(7.0.0)
; #@! TF.FileFunction,NonPlated,1,2,NPTH
FMAT,2
INCH
; #@! TA.AperFunction,NonPlated,NPTH,ComponentDrill
T1C0.0310
; #@! TA.AperFunction,NonPlated,NPTH,ComponentDrill
T2C0.0591
; #@! TA.AperFunction,NonPlated,NPTH,ComponentDrill
T3C0.0689
; #@! TA.AperFunction,NonPlated,NPTH,ComponentDrill
T4C0.0866
; #@! TA.AperFunction,NonPlated,NPTH,ComponentDrill
T5C0.1200
; #@! TA.AperFunction,NonPlated,NPTH,ComponentDrill
T6C0.1570
%
G90
G05
T1
X0.9275Y-0.8688
X0.9275Y-0.9187
X0.9275Y-0.9688
X0.9275Y-1.0188
X0.9275Y-1.0687
X2.24Y-3.7125
X2.24Y-3.7625
X2.24Y-3.8125
X2.24Y-3.8625
X2.24Y-3.9125
X7.6975Y-3.7125
X7.6975Y-3.7625
X7.6975Y-3.8125
X7.6975Y-3.8625
X7.6975Y-3.9125
X9.01Y-0.8688
X9.01Y-0.9187
X9.01Y-0.9688
X9.01Y-1.0188
X9.01Y-1.0687
T3
X1.1125Y-1.3125
X1.2063Y-2.0625
X1.3Y-2.8125
X1.5125Y-1.3125
X1.6062Y-2.0625
X1.7Y-2.8125
X1.8625Y-1.3125
X2.05Y-2.0625
X2.2375Y-2.8125
X2.2625Y-1.3125
X2.45Y-2.0625
X2.5187Y-3.5625
X2.6125Y-1.3125
X2.6375Y-2.8125
X2.8Y-2.0625
X2.9187Y-3.5625
X2.9875Y-2.8125
X3.0125Y-1.3125
X3.2Y-2.0625
X3.3625Y-1.3125
X3.3875Y-2.8125
X3.55Y-2.0625
X3.7375Y-2.8125
X3.7375Y-3.5625
X3.7625Y-1.3125
X3.95Y-2.0625
X4.1125Y-1.3125
X4.1375Y-2.8125
X4.1375Y-3.5625
X4.3Y-2.0625
X4.4875Y-2.8125
X4.5125Y-1.3125
X4.7Y-2.0625
X4.8625Y-1.3125
X4.8875Y-2.8125
X5.05Y-2.0625
X5.2375Y-2.8125
X5.2375Y-3.5625
X5.2625Y-1.3125
X5.45Y-2.0625
X5.5187Y-3.5625
X5.6125Y-1.3125
X5.6375Y-2.8125
X5.6375Y-3.5625
X5.8Y-2.0625
X5.9188Y-3.5625
X5.9875Y-2.8125
X6.0125Y-1.3125
X6.2Y-2.0625
X6.3625Y-1.3125
X6.3875Y-2.8125
X6.55Y-2.0625
X6.7375Y-2.8125
X6.7625Y-1.3125
X6.95Y-2.0625
X7.0187Y-3.5625
X7.1125Y-1.3125
X7.1375Y-2.8125
X7.3Y-2.0625
X7.4188Y-3.5625
X7.4875Y-2.8125
X7.5125Y-1.3125
X7.7Y-2.0625
X7.8625Y-1.3125
X7.8875Y-2.8125
X8.1437Y-1.3125
X8.2375Y-2.0625
X8.2625Y-1.3125
X8.3312Y-2.4375
X8.3312Y-2.8125
X8.5437Y-1.3125
X8.6375Y-2.0625
X8.7312Y-2.4375
X8.7312Y-2.8125
T4
X1.0312Y-3.0938
X1.6875Y-0.9688
X4.9688Y-3.8438
X8.25Y-0.9688
X8.9062Y-3.0938
T5
X3.4688Y-3.8375
X3.5625Y-3.8375
X4.4062Y-3.8375
X5.25Y-3.8375
X6.1875Y-3.8375
X7.3125Y-3.8375
X8.8063Y-1.9688
X8.8063Y-2.9062
T6
X1.3125Y-1.3125
X1.4062Y-2.0625
X1.5Y-2.8125
X2.0625Y-1.3125
X2.25Y-2.0625
X2.4375Y-2.8125
X2.7188Y-3.5625
X2.8125Y-1.3125
X3.0Y-2.0625
X3.1875Y-2.8125
X3.4688Y-3.2375
X3.5625Y-1.3125
X3.5625Y-3.2375
X3.75Y-2.0625
X3.9375Y-2.8125
X3.9375Y-3.5625
X4.3125Y-1.3125
X4.4062Y-3.2375
X4.5Y-2.0625
X4.6875Y-2.8125
X5.0625Y-1.3125
X5.25Y-2.0625
X5.25Y-3.2375
X5.4375Y-2.8125
X5.4375Y-3.5625
X5.7188Y-3.5625
X5.8125Y-1.3125
X6.0Y-2.0625
X6.1875Y-2.8125
X6.1875Y-3.2375
X6.5625Y-1.3125
X6.75Y-2.0625
X6.9375Y-2.8125
X7.2188Y-3.5625
X7.3125Y-1.3125
X7.3125Y-3.2375
X7.5Y-2.0625
X7.6875Y-2.8125
X8.0625Y-1.3125
X8.2062Y-1.9688
X8.2062Y-2.9062
X8.3438Y-1.3125
X8.4375Y-2.0625
X8.5312Y-2.4375
X8.5312Y-2.8125
T2
G00X8.4983Y-1.2869
M15
G01X8.4983Y-1.3381
M16
G05
G00X8.9392Y-1.2869
M15
G01X8.9392Y-1.3381
M16
G05
T0
M30
