%TF.GenerationSoftware,KiCad,Pcbnew,(7.0.0)*%
%TF.CreationDate,2023-08-24T19:00:58+02:00*%
%TF.ProjectId,QAZISOKLEWTFBBQ,51415a49-534f-44b4-9c45-575446424251,rev?*%
%TF.SameCoordinates,Original*%
%TF.FileFunction,Copper,L1,Top*%
%TF.FilePolarity,Positive*%
%FSLAX46Y46*%
G04 Gerber Fmt 4.6, Leading zero omitted, Abs format (unit mm)*
G04 Created by KiCad (PCBNEW (7.0.0)) date 2023-08-24 19:00:58*
%MOMM*%
%LPD*%
G01*
G04 APERTURE LIST*
%TA.AperFunction,ComponentPad*%
%ADD10C,2.300000*%
%TD*%
%TA.AperFunction,ComponentPad*%
%ADD11R,1.600000X1.600000*%
%TD*%
%TA.AperFunction,ComponentPad*%
%ADD12C,1.600000*%
%TD*%
%TA.AperFunction,WasherPad*%
%ADD13O,2.000000X3.200000*%
%TD*%
%TA.AperFunction,ComponentPad*%
%ADD14R,2.000000X2.000000*%
%TD*%
%TA.AperFunction,ComponentPad*%
%ADD15C,2.000000*%
%TD*%
%TA.AperFunction,ComponentPad*%
%ADD16O,2.500000X1.500000*%
%TD*%
%TA.AperFunction,ComponentPad*%
%ADD17O,1.500000X2.500000*%
%TD*%
%TA.AperFunction,Conductor*%
%ADD18C,0.250000*%
%TD*%
%TA.AperFunction,Conductor*%
%ADD19C,0.381000*%
%TD*%
G04 APERTURE END LIST*
D10*
%TO.P,MX10,1,1*%
%TO.N,COL9*%
X208121250Y-30797500D03*
%TO.P,MX10,2,2*%
%TO.N,Net-(D10-A)*%
X214471250Y-28257500D03*
%TD*%
D11*
%TO.P,D35,1,K*%
%TO.N,ROW3*%
X211999999Y-78581249D03*
D12*
%TO.P,D35,2,A*%
%TO.N,Net-(D35-A)*%
X219800000Y-78581250D03*
%TD*%
D11*
%TO.P,D12,1,K*%
%TO.N,ROW1*%
X65087499Y-56287499D03*
D12*
%TO.P,D12,2,A*%
%TO.N,Net-(D12-A)*%
X65087500Y-48487500D03*
%TD*%
D10*
%TO.P,MX18,1,1*%
%TO.N,COL7*%
X167640000Y-49847500D03*
%TO.P,MX18,2,2*%
%TO.N,Net-(D18-A)*%
X173990000Y-47307500D03*
%TD*%
D11*
%TO.P,D30,1,K*%
%TO.N,ROW3*%
X76993749Y-94387499D03*
D12*
%TO.P,D30,2,A*%
%TO.N,Net-(D30-A)*%
X76993750Y-86587500D03*
%TD*%
D11*
%TO.P,D27,1,K*%
%TO.N,ROW2*%
X165099999Y-75337499D03*
D12*
%TO.P,D27,2,A*%
%TO.N,Net-(D27-A)*%
X165100000Y-67537500D03*
%TD*%
D10*
%TO.P,MX19,1,1*%
%TO.N,COL8*%
X186690000Y-49847500D03*
%TO.P,MX19,2,2*%
%TO.N,Net-(D19-A)*%
X193040000Y-47307500D03*
%TD*%
D11*
%TO.P,D32,1,K*%
%TO.N,ROW3*%
X153193749Y-94387499D03*
D12*
%TO.P,D32,2,A*%
%TO.N,Net-(D32-A)*%
X153193750Y-86587500D03*
%TD*%
D10*
%TO.P,MX27,1,1*%
%TO.N,COL6*%
X153352500Y-68897500D03*
%TO.P,MX27,2,2*%
%TO.N,Net-(D27-A)*%
X159702500Y-66357500D03*
%TD*%
D11*
%TO.P,D16,1,K*%
%TO.N,ROW1*%
X141287499Y-56356249D03*
D12*
%TO.P,D16,2,A*%
%TO.N,Net-(D16-A)*%
X141287500Y-48556250D03*
%TD*%
D10*
%TO.P,MX23,1,1*%
%TO.N,COL2*%
X77152500Y-68897500D03*
%TO.P,MX23,2,2*%
%TO.N,Net-(D23-A)*%
X83502500Y-66357500D03*
%TD*%
D11*
%TO.P,D21,1,K*%
%TO.N,ROW2*%
X46037499Y-75337499D03*
D12*
%TO.P,D21,2,A*%
%TO.N,Net-(D21-A)*%
X46037500Y-67537500D03*
%TD*%
D13*
%TO.P,SW1,*%
%TO.N,*%
X227056249Y-33337499D03*
X215856249Y-33337499D03*
D14*
%TO.P,SW1,A,A*%
%TO.N,ROTARY_A*%
X223956249Y-25837499D03*
D15*
%TO.P,SW1,B,B*%
%TO.N,ROTARY_B*%
X218956250Y-25837500D03*
%TO.P,SW1,C,C*%
%TO.N,GND*%
X221456250Y-25837500D03*
%TO.P,SW1,S1,S1*%
%TO.N,Net-(D34-A)*%
X218956250Y-40337500D03*
%TO.P,SW1,S2,S2*%
%TO.N,COL9*%
X223956250Y-40337500D03*
%TD*%
D10*
%TO.P,MX16,1,1*%
%TO.N,COL5*%
X129540000Y-49847500D03*
%TO.P,MX16,2,2*%
%TO.N,Net-(D16-A)*%
X135890000Y-47307500D03*
%TD*%
%TO.P,MX20,1,1*%
%TO.N,COL9*%
X212883750Y-59372500D03*
%TO.P,MX20,2,2*%
%TO.N,Net-(D20-A)*%
X219233750Y-56832500D03*
%TD*%
D11*
%TO.P,D33,1,K*%
%TO.N,ROW3*%
X191293749Y-94387499D03*
D12*
%TO.P,D33,2,A*%
%TO.N,Net-(D33-A)*%
X191293750Y-86587500D03*
%TD*%
D11*
%TO.P,D34,1,K*%
%TO.N,ROW2*%
X225356249Y-42862499D03*
D12*
%TO.P,D34,2,A*%
%TO.N,Net-(D34-A)*%
X217556250Y-42862500D03*
%TD*%
D11*
%TO.P,D28,1,K*%
%TO.N,ROW2*%
X184149999Y-75337499D03*
D12*
%TO.P,D28,2,A*%
%TO.N,Net-(D28-A)*%
X184150000Y-67537500D03*
%TD*%
D10*
%TO.P,MX29,1,1*%
%TO.N,COL8*%
X191452500Y-68897500D03*
%TO.P,MX29,2,2*%
%TO.N,Net-(D29-A)*%
X197802500Y-66357500D03*
%TD*%
%TO.P,MX32,1,1*%
%TO.N,COL5*%
X141446250Y-87947500D03*
%TO.P,MX32,2,2*%
%TO.N,Net-(D32-A)*%
X147796250Y-85407500D03*
%TD*%
D11*
%TO.P,D31,1,K*%
%TO.N,ROW3*%
X107949999Y-94387499D03*
D12*
%TO.P,D31,2,A*%
%TO.N,Net-(D31-A)*%
X107950000Y-86587500D03*
%TD*%
D10*
%TO.P,MX4,1,1*%
%TO.N,COL3*%
X86677500Y-30797500D03*
%TO.P,MX4,2,2*%
%TO.N,Net-(D4-A)*%
X93027500Y-28257500D03*
%TD*%
D11*
%TO.P,D17,1,K*%
%TO.N,ROW1*%
X160337499Y-56287499D03*
D12*
%TO.P,D17,2,A*%
%TO.N,Net-(D17-A)*%
X160337500Y-48487500D03*
%TD*%
D10*
%TO.P,MX36,1,1*%
%TO.N,COL5*%
X134302500Y-87947500D03*
%TO.P,MX36,2,2*%
%TO.N,Net-(D32-A)*%
X140652500Y-85407500D03*
%TD*%
%TO.P,MX31,1,1*%
%TO.N,COL3*%
X96202500Y-87947500D03*
%TO.P,MX31,2,2*%
%TO.N,Net-(D31-A)*%
X102552500Y-85407500D03*
%TD*%
D11*
%TO.P,D6,1,K*%
%TO.N,ROW0*%
X136524999Y-37237499D03*
D12*
%TO.P,D6,2,A*%
%TO.N,Net-(D6-A)*%
X136525000Y-29437500D03*
%TD*%
D11*
%TO.P,D9,1,K*%
%TO.N,ROW0*%
X193674999Y-37237499D03*
D12*
%TO.P,D9,2,A*%
%TO.N,Net-(D9-A)*%
X193675000Y-29437500D03*
%TD*%
D11*
%TO.P,D26,1,K*%
%TO.N,ROW2*%
X146049999Y-75337499D03*
D12*
%TO.P,D26,2,A*%
%TO.N,Net-(D26-A)*%
X146050000Y-67537500D03*
%TD*%
D10*
%TO.P,MX14,1,1*%
%TO.N,COL3*%
X91440000Y-49847500D03*
%TO.P,MX14,2,2*%
%TO.N,Net-(D14-A)*%
X97790000Y-47307500D03*
%TD*%
D11*
%TO.P,D20,1,K*%
%TO.N,ROW1*%
X224631249Y-65812499D03*
D12*
%TO.P,D20,2,A*%
%TO.N,Net-(D20-A)*%
X224631250Y-58012500D03*
%TD*%
D10*
%TO.P,MX13,1,1*%
%TO.N,COL2*%
X72390000Y-49847500D03*
%TO.P,MX13,2,2*%
%TO.N,Net-(D13-A)*%
X78740000Y-47307500D03*
%TD*%
D11*
%TO.P,D23,1,K*%
%TO.N,ROW2*%
X88899999Y-75337499D03*
D12*
%TO.P,D23,2,A*%
%TO.N,Net-(D23-A)*%
X88900000Y-67537500D03*
%TD*%
D11*
%TO.P,D18,1,K*%
%TO.N,ROW1*%
X179387499Y-56287499D03*
D12*
%TO.P,D18,2,A*%
%TO.N,Net-(D18-A)*%
X179387500Y-48487500D03*
%TD*%
D10*
%TO.P,MX30,1,1*%
%TO.N,COL1*%
X65246250Y-87947500D03*
%TO.P,MX30,2,2*%
%TO.N,Net-(D30-A)*%
X71596250Y-85407500D03*
%TD*%
%TO.P,MX15,1,1*%
%TO.N,COL4*%
X110490000Y-49847500D03*
%TO.P,MX15,2,2*%
%TO.N,Net-(D15-A)*%
X116840000Y-47307500D03*
%TD*%
D11*
%TO.P,D5,1,K*%
%TO.N,ROW0*%
X120649999Y-37237499D03*
D12*
%TO.P,D5,2,A*%
%TO.N,Net-(D5-A)*%
X120650000Y-29437500D03*
%TD*%
D10*
%TO.P,MX22,1,1*%
%TO.N,COL1*%
X58102500Y-68897500D03*
%TO.P,MX22,2,2*%
%TO.N,Net-(D22-A)*%
X64452500Y-66357500D03*
%TD*%
%TO.P,MX3,1,1*%
%TO.N,COL2*%
X67627500Y-30797500D03*
%TO.P,MX3,2,2*%
%TO.N,Net-(D3-A)*%
X73977500Y-28257500D03*
%TD*%
D11*
%TO.P,D24,1,K*%
%TO.N,ROW2*%
X107949999Y-75337499D03*
D12*
%TO.P,D24,2,A*%
%TO.N,Net-(D24-A)*%
X107950000Y-67537500D03*
%TD*%
D11*
%TO.P,D4,1,K*%
%TO.N,ROW0*%
X98424999Y-37237499D03*
D12*
%TO.P,D4,2,A*%
%TO.N,Net-(D4-A)*%
X98425000Y-29437500D03*
%TD*%
D10*
%TO.P,MX12,1,1*%
%TO.N,COL1*%
X53340000Y-49847500D03*
%TO.P,MX12,2,2*%
%TO.N,Net-(D12-A)*%
X59690000Y-47307500D03*
%TD*%
D11*
%TO.P,D11,1,K*%
%TO.N,ROW1*%
X43656249Y-56287499D03*
D12*
%TO.P,D11,2,A*%
%TO.N,Net-(D11-A)*%
X43656250Y-48487500D03*
%TD*%
D10*
%TO.P,MX1,1,1*%
%TO.N,COL0*%
X29527500Y-30797500D03*
%TO.P,MX1,2,2*%
%TO.N,Net-(D1-A)*%
X35877500Y-28257500D03*
%TD*%
%TO.P,MX17,1,1*%
%TO.N,COL6*%
X148590000Y-49847500D03*
%TO.P,MX17,2,2*%
%TO.N,Net-(D17-A)*%
X154940000Y-47307500D03*
%TD*%
D11*
%TO.P,D19,1,K*%
%TO.N,ROW1*%
X198437499Y-56474999D03*
D12*
%TO.P,D19,2,A*%
%TO.N,Net-(D19-A)*%
X198437500Y-48675000D03*
%TD*%
D10*
%TO.P,MX37,1,1*%
%TO.N,COL8*%
X212883750Y-68897500D03*
%TO.P,MX37,2,2*%
%TO.N,Net-(D35-A)*%
X219233750Y-66357500D03*
%TD*%
D11*
%TO.P,D8,1,K*%
%TO.N,ROW0*%
X174624999Y-37237499D03*
D12*
%TO.P,D8,2,A*%
%TO.N,Net-(D8-A)*%
X174625000Y-29437500D03*
%TD*%
D10*
%TO.P,MX2,1,1*%
%TO.N,COL1*%
X48577500Y-30797500D03*
%TO.P,MX2,2,2*%
%TO.N,Net-(D2-A)*%
X54927500Y-28257500D03*
%TD*%
%TO.P,MX35,1,1*%
%TO.N,COL9*%
X210502500Y-49847500D03*
%TO.P,MX35,2,2*%
%TO.N,Net-(D20-A)*%
X216852500Y-47307500D03*
%TD*%
%TO.P,MX11,1,1*%
%TO.N,COL0*%
X31908750Y-49847500D03*
%TO.P,MX11,2,2*%
%TO.N,Net-(D11-A)*%
X38258750Y-47307500D03*
%TD*%
%TO.P,MX24,1,1*%
%TO.N,COL3*%
X96202500Y-68897500D03*
%TO.P,MX24,2,2*%
%TO.N,Net-(D24-A)*%
X102552500Y-66357500D03*
%TD*%
D11*
%TO.P,D29,1,K*%
%TO.N,ROW2*%
X203199999Y-75337499D03*
D12*
%TO.P,D29,2,A*%
%TO.N,Net-(D29-A)*%
X203200000Y-67537500D03*
%TD*%
D11*
%TO.P,D15,1,K*%
%TO.N,ROW1*%
X122237499Y-56287499D03*
D12*
%TO.P,D15,2,A*%
%TO.N,Net-(D15-A)*%
X122237500Y-48487500D03*
%TD*%
D10*
%TO.P,MX25,1,1*%
%TO.N,COL4*%
X115252500Y-68897500D03*
%TO.P,MX25,2,2*%
%TO.N,Net-(D25-A)*%
X121602500Y-66357500D03*
%TD*%
%TO.P,MX9,1,1*%
%TO.N,COL8*%
X181927500Y-30797500D03*
%TO.P,MX9,2,2*%
%TO.N,Net-(D9-A)*%
X188277500Y-28257500D03*
%TD*%
%TO.P,MX5,1,1*%
%TO.N,COL4*%
X105727500Y-30797500D03*
%TO.P,MX5,2,2*%
%TO.N,Net-(D5-A)*%
X112077500Y-28257500D03*
%TD*%
%TO.P,MX26,1,1*%
%TO.N,COL5*%
X134302500Y-68897500D03*
%TO.P,MX26,2,2*%
%TO.N,Net-(D26-A)*%
X140652500Y-66357500D03*
%TD*%
%TO.P,MX7,1,1*%
%TO.N,COL6*%
X143827500Y-30797500D03*
%TO.P,MX7,2,2*%
%TO.N,Net-(D7-A)*%
X150177500Y-28257500D03*
%TD*%
D11*
%TO.P,D25,1,K*%
%TO.N,ROW2*%
X126999999Y-75337499D03*
D12*
%TO.P,D25,2,A*%
%TO.N,Net-(D25-A)*%
X127000000Y-67537500D03*
%TD*%
D10*
%TO.P,MX33,1,1*%
%TO.N,COL7*%
X179546250Y-87947500D03*
%TO.P,MX33,2,2*%
%TO.N,Net-(D33-A)*%
X185896250Y-85407500D03*
%TD*%
D11*
%TO.P,D22,1,K*%
%TO.N,ROW2*%
X69849999Y-75337499D03*
D12*
%TO.P,D22,2,A*%
%TO.N,Net-(D22-A)*%
X69850000Y-67537500D03*
%TD*%
D10*
%TO.P,MX28,1,1*%
%TO.N,COL7*%
X172402500Y-68897500D03*
%TO.P,MX28,2,2*%
%TO.N,Net-(D28-A)*%
X178752500Y-66357500D03*
%TD*%
D11*
%TO.P,D14,1,K*%
%TO.N,ROW1*%
X103187499Y-56287499D03*
D12*
%TO.P,D14,2,A*%
%TO.N,Net-(D14-A)*%
X103187500Y-48487500D03*
%TD*%
D10*
%TO.P,MX21,1,1*%
%TO.N,COL0*%
X34290000Y-68897500D03*
%TO.P,MX21,2,2*%
%TO.N,Net-(D21-A)*%
X40640000Y-66357500D03*
%TD*%
D11*
%TO.P,D2,1,K*%
%TO.N,ROW0*%
X60324999Y-37237499D03*
D12*
%TO.P,D2,2,A*%
%TO.N,Net-(D2-A)*%
X60325000Y-29437500D03*
%TD*%
D10*
%TO.P,MX34,1,1*%
%TO.N,COL9*%
X200977500Y-30797500D03*
%TO.P,MX34,2,2*%
%TO.N,Net-(D10-A)*%
X207327500Y-28257500D03*
%TD*%
%TO.P,MX8,1,1*%
%TO.N,COL7*%
X162877500Y-30797500D03*
%TO.P,MX8,2,2*%
%TO.N,Net-(D8-A)*%
X169227500Y-28257500D03*
%TD*%
D11*
%TO.P,D1,1,K*%
%TO.N,ROW0*%
X41274999Y-37237499D03*
D12*
%TO.P,D1,2,A*%
%TO.N,Net-(D1-A)*%
X41275000Y-29437500D03*
%TD*%
D11*
%TO.P,D10,1,K*%
%TO.N,ROW0*%
X196849999Y-37237499D03*
D12*
%TO.P,D10,2,A*%
%TO.N,Net-(D10-A)*%
X196850000Y-29437500D03*
%TD*%
D11*
%TO.P,D7,1,K*%
%TO.N,ROW0*%
X155574999Y-37237499D03*
D12*
%TO.P,D7,2,A*%
%TO.N,Net-(D7-A)*%
X155575000Y-29437500D03*
%TD*%
D11*
%TO.P,D3,1,K*%
%TO.N,ROW0*%
X79374999Y-37237499D03*
D12*
%TO.P,D3,2,A*%
%TO.N,Net-(D3-A)*%
X79375000Y-29437500D03*
%TD*%
D10*
%TO.P,MX6,1,1*%
%TO.N,COL5*%
X124777500Y-30797500D03*
%TO.P,MX6,2,2*%
%TO.N,Net-(D6-A)*%
X131127500Y-28257500D03*
%TD*%
D11*
%TO.P,D13,1,K*%
%TO.N,ROW1*%
X84137499Y-56287499D03*
D12*
%TO.P,D13,2,A*%
%TO.N,Net-(D13-A)*%
X84137500Y-48487500D03*
%TD*%
D16*
%TO.P,RZ1,1,GP0*%
%TO.N,ROTARY_A*%
X101417499Y-23177499D03*
%TO.P,RZ1,2,GP1*%
%TO.N,ROTARY_B*%
X101417499Y-25717499D03*
%TO.P,RZ1,3,GP2*%
%TO.N,unconnected-(RZ1-GP2-Pad3)*%
X101417499Y-28257499D03*
%TO.P,RZ1,4,GP3*%
%TO.N,unconnected-(RZ1-GP3-Pad4)*%
X101417499Y-30797499D03*
%TO.P,RZ1,5,GP4*%
%TO.N,COL8*%
X101417499Y-33337499D03*
%TO.P,RZ1,6,GP5*%
%TO.N,ROW0*%
X101417499Y-35877499D03*
%TO.P,RZ1,7,GP6*%
%TO.N,ROW3*%
X101417499Y-38417499D03*
%TO.P,RZ1,8,GP7*%
%TO.N,COL0*%
X101417499Y-40957499D03*
%TO.P,RZ1,9,GP8*%
%TO.N,COL1*%
X101417499Y-43497499D03*
D17*
%TO.P,RZ1,10,GP9*%
%TO.N,COL2*%
X104457499Y-43997499D03*
%TO.P,RZ1,11,GP10*%
%TO.N,COL3*%
X106997499Y-43997499D03*
%TO.P,RZ1,12,GP11*%
%TO.N,COL4*%
X109537499Y-43997499D03*
%TO.P,RZ1,13,GP12*%
%TO.N,COL5*%
X112077499Y-43997499D03*
%TO.P,RZ1,14,GP13*%
%TO.N,COL6*%
X114617499Y-43997499D03*
D16*
%TO.P,RZ1,15,GP14*%
%TO.N,COL7*%
X117657499Y-43497499D03*
%TO.P,RZ1,16,GP15*%
%TO.N,COL9*%
X117657499Y-40957499D03*
%TO.P,RZ1,17,GP26*%
%TO.N,ROW2*%
X117657499Y-38417499D03*
%TO.P,RZ1,18,GP27*%
%TO.N,ROW1*%
X117657499Y-35877499D03*
%TO.P,RZ1,19,GP28*%
%TO.N,unconnected-(RZ1-GP28-Pad19)*%
X117657499Y-33337499D03*
%TO.P,RZ1,20,GP29*%
%TO.N,unconnected-(RZ1-GP29-Pad20)*%
X117657499Y-30797499D03*
%TO.P,RZ1,21,3V3*%
%TO.N,+3V3*%
X117657499Y-28257499D03*
%TO.P,RZ1,22,5V*%
%TO.N,+5V*%
X117657499Y-25717499D03*
%TO.P,RZ1,23,GND*%
%TO.N,GND*%
X117657499Y-23177499D03*
%TD*%
D18*
%TO.N,COL0*%
X29527500Y-47466250D02*
X31908750Y-49847500D01*
X31908750Y-66516250D02*
X34290000Y-68897500D01*
X31908750Y-49847500D02*
X31908750Y-66516250D01*
X29527500Y-30797500D02*
X29527500Y-47466250D01*
%TO.N,COL1*%
X58102500Y-68897500D02*
X58102500Y-80803750D01*
X53340000Y-64135000D02*
X58102500Y-68897500D01*
X58102500Y-80803750D02*
X65246250Y-87947500D01*
X53340000Y-49847500D02*
X53340000Y-64135000D01*
X48577500Y-45085000D02*
X53340000Y-49847500D01*
X48577500Y-30797500D02*
X48577500Y-45085000D01*
%TO.N,COL2*%
X67627500Y-30797500D02*
X67627500Y-45085000D01*
X72390000Y-64135000D02*
X77152500Y-68897500D01*
X67627500Y-45085000D02*
X72390000Y-49847500D01*
X72390000Y-49847500D02*
X72390000Y-64135000D01*
%TO.N,COL3*%
X86677500Y-30797500D02*
X86677500Y-45085000D01*
X91440000Y-49847500D02*
X91440000Y-64135000D01*
X91440000Y-64135000D02*
X96202500Y-68897500D01*
X96202500Y-68897500D02*
X96202500Y-87947500D01*
X86677500Y-45085000D02*
X91440000Y-49847500D01*
%TO.N,COL4*%
X110490000Y-64135000D02*
X115252500Y-68897500D01*
X105727500Y-30797500D02*
X105727500Y-45085000D01*
X105727500Y-45085000D02*
X110490000Y-49847500D01*
X110490000Y-49847500D02*
X110490000Y-64135000D01*
%TO.N,COL5*%
X124777500Y-45085000D02*
X129540000Y-49847500D01*
X129540000Y-64135000D02*
X134302500Y-68897500D01*
X129540000Y-49847500D02*
X129540000Y-64135000D01*
X135743600Y-83871195D02*
X135743600Y-86506400D01*
X135743600Y-86506400D02*
X134302500Y-87947500D01*
X139819905Y-87947500D02*
X141446250Y-87947500D01*
X134302500Y-87947500D02*
X141446250Y-87947500D01*
X124777500Y-30797500D02*
X124777500Y-45085000D01*
X134302500Y-68897500D02*
X135743600Y-70338600D01*
X135743600Y-70338600D02*
X135743600Y-83871195D01*
%TO.N,COL6*%
X143827500Y-30797500D02*
X143827500Y-45085000D01*
X148590000Y-49847500D02*
X148590000Y-64135000D01*
X143827500Y-45085000D02*
X148590000Y-49847500D01*
X148590000Y-64135000D02*
X153352500Y-68897500D01*
%TO.N,COL7*%
X172402500Y-68897500D02*
X172402500Y-80803750D01*
X162877500Y-30797500D02*
X162877500Y-45085000D01*
X162877500Y-45085000D02*
X167640000Y-49847500D01*
X167640000Y-64135000D02*
X172402500Y-68897500D01*
X172402500Y-80803750D02*
X179546250Y-87947500D01*
X167640000Y-49847500D02*
X167640000Y-64135000D01*
%TO.N,COL8*%
X186690000Y-49847500D02*
X186690000Y-64135000D01*
X181927500Y-45085000D02*
X186690000Y-49847500D01*
X186690000Y-64135000D02*
X191452500Y-68897500D01*
X181927500Y-30797500D02*
X181927500Y-45085000D01*
%TO.N,COL9*%
X200977500Y-30797500D02*
X208121250Y-30797500D01*
X210807650Y-57296400D02*
X210807650Y-49847500D01*
X211943600Y-58432350D02*
X212883750Y-59372500D01*
X212883750Y-59372500D02*
X210807650Y-57296400D01*
X212226534Y-49847500D02*
X210807650Y-49847500D01*
X221736534Y-40337500D02*
X212226534Y-49847500D01*
X208121250Y-30797500D02*
X208121250Y-38554035D01*
X223956250Y-40337500D02*
X221736534Y-40337500D01*
X210807650Y-49025019D02*
X210807650Y-49847500D01*
X208121250Y-30797500D02*
X208121250Y-46338619D01*
X208121250Y-46338619D02*
X210807650Y-49025019D01*
%TO.N,Net-(D35-A)*%
X219800000Y-66923750D02*
X219800000Y-78581250D01*
X219233750Y-66357500D02*
X219800000Y-66923750D01*
D19*
%TO.N,GND*%
X220709500Y-23065750D02*
X117269250Y-23065750D01*
X117269250Y-23065750D02*
X117157500Y-23177500D01*
X221456250Y-23812500D02*
X220709500Y-23065750D01*
X221456250Y-25837500D02*
X221456250Y-23812500D01*
%TD*%
M02*
