%TF.GenerationSoftware,KiCad,Pcbnew,(7.0.0)*%
%TF.CreationDate,2023-08-24T19:00:58+02:00*%
%TF.ProjectId,QAZISOKLEWTFBBQ,51415a49-534f-44b4-9c45-575446424251,rev?*%
%TF.SameCoordinates,Original*%
%TF.FileFunction,Soldermask,Top*%
%TF.FilePolarity,Negative*%
%FSLAX46Y46*%
G04 Gerber Fmt 4.6, Leading zero omitted, Abs format (unit mm)*
G04 Created by KiCad (PCBNEW (7.0.0)) date 2023-08-24 19:00:58*
%MOMM*%
%LPD*%
G01*
G04 APERTURE LIST*
%ADD10C,1.750000*%
%ADD11C,3.987800*%
%ADD12R,1.600000X1.600000*%
%ADD13C,1.600000*%
%ADD14C,3.048000*%
%ADD15O,2.000000X3.200000*%
%ADD16R,2.000000X2.000000*%
%ADD17C,2.000000*%
%ADD18C,0.787400*%
%ADD19C,2.200000*%
%ADD20O,2.500000X1.500000*%
%ADD21O,1.500000X2.500000*%
G04 APERTURE END LIST*
D10*
%TO.C,MX10*%
X206851250Y-33337500D03*
D11*
X211931250Y-33337500D03*
D10*
X217011250Y-33337500D03*
%TD*%
D12*
%TO.C,D35*%
X211999999Y-78581249D03*
D13*
X219800000Y-78581250D03*
%TD*%
D12*
%TO.C,D12*%
X65087499Y-56287499D03*
D13*
X65087500Y-48487500D03*
%TD*%
D10*
%TO.C,MX18*%
X166370000Y-52387500D03*
D11*
X171450000Y-52387500D03*
D10*
X176530000Y-52387500D03*
%TD*%
D12*
%TO.C,D30*%
X76993749Y-94387499D03*
D13*
X76993750Y-86587500D03*
%TD*%
D12*
%TO.C,D27*%
X165099999Y-75337499D03*
D13*
X165100000Y-67537500D03*
%TD*%
D10*
%TO.C,MX19*%
X185420000Y-52387500D03*
D11*
X190500000Y-52387500D03*
D10*
X195580000Y-52387500D03*
%TD*%
D12*
%TO.C,D32*%
X153193749Y-94387499D03*
D13*
X153193750Y-86587500D03*
%TD*%
D10*
%TO.C,MX27*%
X152082500Y-71437500D03*
D11*
X157162500Y-71437500D03*
D10*
X162242500Y-71437500D03*
%TD*%
D12*
%TO.C,D16*%
X141287499Y-56356249D03*
D13*
X141287500Y-48556250D03*
%TD*%
D11*
%TO.C,S3*%
X208438750Y-50006250D03*
X208438750Y-73818750D03*
D14*
X223678750Y-50006250D03*
X223678750Y-73818750D03*
%TD*%
D10*
%TO.C,MX23*%
X75882500Y-71437500D03*
D11*
X80962500Y-71437500D03*
D10*
X86042500Y-71437500D03*
%TD*%
D12*
%TO.C,D21*%
X46037499Y-75337499D03*
D13*
X46037500Y-67537500D03*
%TD*%
D15*
%TO.C,SW1*%
X227056249Y-33337499D03*
X215856249Y-33337499D03*
D16*
X223956249Y-25837499D03*
D17*
X218956250Y-25837500D03*
X221456250Y-25837500D03*
X218956250Y-40337500D03*
X223956250Y-40337500D03*
%TD*%
D10*
%TO.C,MX16*%
X128270000Y-52387500D03*
D11*
X133350000Y-52387500D03*
D10*
X138430000Y-52387500D03*
%TD*%
%TO.C,MX20*%
X211613750Y-61912500D03*
D11*
X216693750Y-61912500D03*
D10*
X221773750Y-61912500D03*
%TD*%
D12*
%TO.C,D33*%
X191293749Y-94387499D03*
D13*
X191293750Y-86587500D03*
%TD*%
D12*
%TO.C,D34*%
X225356249Y-42862499D03*
D13*
X217556250Y-42862500D03*
%TD*%
D18*
%TO.C,REF\u002A\u002A*%
X195516500Y-94297500D03*
X195516500Y-95567500D03*
X195516500Y-96837500D03*
X195516500Y-98107500D03*
X195516500Y-99377500D03*
%TD*%
D12*
%TO.C,D28*%
X184149999Y-75337499D03*
D13*
X184150000Y-67537500D03*
%TD*%
D10*
%TO.C,MX29*%
X190182500Y-71437500D03*
D11*
X195262500Y-71437500D03*
D10*
X200342500Y-71437500D03*
%TD*%
%TO.C,MX32*%
X140176250Y-90487500D03*
D11*
X145256250Y-90487500D03*
D10*
X150336250Y-90487500D03*
%TD*%
D12*
%TO.C,D31*%
X107949999Y-94387499D03*
D13*
X107950000Y-86587500D03*
%TD*%
D10*
%TO.C,MX4*%
X85407500Y-33337500D03*
D11*
X90487500Y-33337500D03*
D10*
X95567500Y-33337500D03*
%TD*%
D14*
%TO.C,S4*%
X185737500Y-97472500D03*
D11*
X185737500Y-82232500D03*
D14*
X90487500Y-97472500D03*
D11*
X90487500Y-82232500D03*
%TD*%
D12*
%TO.C,D17*%
X160337499Y-56287499D03*
D13*
X160337500Y-48487500D03*
%TD*%
D10*
%TO.C,MX36*%
X133032500Y-90487500D03*
D11*
X138112500Y-90487500D03*
D10*
X143192500Y-90487500D03*
%TD*%
%TO.C,MX31*%
X94932500Y-90487500D03*
D11*
X100012500Y-90487500D03*
D10*
X105092500Y-90487500D03*
%TD*%
D18*
%TO.C,REF\u002A\u002A*%
X228854000Y-22066250D03*
X228854000Y-23336250D03*
X228854000Y-24606250D03*
X228854000Y-25876250D03*
X228854000Y-27146250D03*
%TD*%
D12*
%TO.C,D6*%
X136524999Y-37237499D03*
D13*
X136525000Y-29437500D03*
%TD*%
D12*
%TO.C,D9*%
X193674999Y-37237499D03*
D13*
X193675000Y-29437500D03*
%TD*%
D12*
%TO.C,D26*%
X146049999Y-75337499D03*
D13*
X146050000Y-67537500D03*
%TD*%
D10*
%TO.C,MX14*%
X90170000Y-52387500D03*
D11*
X95250000Y-52387500D03*
D10*
X100330000Y-52387500D03*
%TD*%
D14*
%TO.C,S2*%
X157162500Y-97472500D03*
D11*
X157162500Y-82232500D03*
D14*
X133350000Y-97472500D03*
D11*
X133350000Y-82232500D03*
%TD*%
D12*
%TO.C,D20*%
X224631249Y-65812499D03*
D13*
X224631250Y-58012500D03*
%TD*%
D10*
%TO.C,MX13*%
X71120000Y-52387500D03*
D11*
X76200000Y-52387500D03*
D10*
X81280000Y-52387500D03*
%TD*%
D12*
%TO.C,D23*%
X88899999Y-75337499D03*
D13*
X88900000Y-67537500D03*
%TD*%
D12*
%TO.C,D18*%
X179387499Y-56287499D03*
D13*
X179387500Y-48487500D03*
%TD*%
D10*
%TO.C,MX30*%
X63976250Y-90487500D03*
D11*
X69056250Y-90487500D03*
D10*
X74136250Y-90487500D03*
%TD*%
%TO.C,MX15*%
X109220000Y-52387500D03*
D11*
X114300000Y-52387500D03*
D10*
X119380000Y-52387500D03*
%TD*%
D12*
%TO.C,D5*%
X120649999Y-37237499D03*
D13*
X120650000Y-29437500D03*
%TD*%
D10*
%TO.C,MX22*%
X56832500Y-71437500D03*
D11*
X61912500Y-71437500D03*
D10*
X66992500Y-71437500D03*
%TD*%
%TO.C,MX3*%
X66357500Y-33337500D03*
D11*
X71437500Y-33337500D03*
D10*
X76517500Y-33337500D03*
%TD*%
D12*
%TO.C,D24*%
X107949999Y-75337499D03*
D13*
X107950000Y-67537500D03*
%TD*%
D12*
%TO.C,D4*%
X98424999Y-37237499D03*
D13*
X98425000Y-29437500D03*
%TD*%
D10*
%TO.C,MX12*%
X52070000Y-52387500D03*
D11*
X57150000Y-52387500D03*
D10*
X62230000Y-52387500D03*
%TD*%
D12*
%TO.C,D11*%
X43656249Y-56287499D03*
D13*
X43656250Y-48487500D03*
%TD*%
D10*
%TO.C,MX1*%
X28257500Y-33337500D03*
D11*
X33337500Y-33337500D03*
D10*
X38417500Y-33337500D03*
%TD*%
%TO.C,MX17*%
X147320000Y-52387500D03*
D11*
X152400000Y-52387500D03*
D10*
X157480000Y-52387500D03*
%TD*%
D12*
%TO.C,D19*%
X198437499Y-56474999D03*
D13*
X198437500Y-48675000D03*
%TD*%
D10*
%TO.C,MX37*%
X211613750Y-71437500D03*
D11*
X216693750Y-71437500D03*
D10*
X221773750Y-71437500D03*
%TD*%
D12*
%TO.C,D8*%
X174624999Y-37237499D03*
D13*
X174625000Y-29437500D03*
%TD*%
D10*
%TO.C,MX2*%
X47307500Y-33337500D03*
D11*
X52387500Y-33337500D03*
D10*
X57467500Y-33337500D03*
%TD*%
%TO.C,MX35*%
X209232500Y-52387500D03*
D11*
X214312500Y-52387500D03*
D10*
X219392500Y-52387500D03*
%TD*%
%TO.C,MX11*%
X30638750Y-52387500D03*
D11*
X35718750Y-52387500D03*
D10*
X40798750Y-52387500D03*
%TD*%
D18*
%TO.C,REF\u002A\u002A*%
X56896000Y-99377500D03*
X56896000Y-98107500D03*
X56896000Y-96837500D03*
X56896000Y-95567500D03*
X56896000Y-94297500D03*
%TD*%
D10*
%TO.C,MX24*%
X94932500Y-71437500D03*
D11*
X100012500Y-71437500D03*
D10*
X105092500Y-71437500D03*
%TD*%
D12*
%TO.C,D29*%
X203199999Y-75337499D03*
D13*
X203200000Y-67537500D03*
%TD*%
D12*
%TO.C,D15*%
X122237499Y-56287499D03*
D13*
X122237500Y-48487500D03*
%TD*%
D10*
%TO.C,MX25*%
X113982500Y-71437500D03*
D11*
X119062500Y-71437500D03*
D10*
X124142500Y-71437500D03*
%TD*%
%TO.C,MX9*%
X180657500Y-33337500D03*
D11*
X185737500Y-33337500D03*
D10*
X190817500Y-33337500D03*
%TD*%
%TO.C,MX5*%
X104457500Y-33337500D03*
D11*
X109537500Y-33337500D03*
D10*
X114617500Y-33337500D03*
%TD*%
%TO.C,MX26*%
X133032500Y-71437500D03*
D11*
X138112500Y-71437500D03*
D10*
X143192500Y-71437500D03*
%TD*%
%TO.C,MX7*%
X142557500Y-33337500D03*
D11*
X147637500Y-33337500D03*
D10*
X152717500Y-33337500D03*
%TD*%
D12*
%TO.C,D25*%
X126999999Y-75337499D03*
D13*
X127000000Y-67537500D03*
%TD*%
D10*
%TO.C,MX33*%
X178276250Y-90487500D03*
D11*
X183356250Y-90487500D03*
D10*
X188436250Y-90487500D03*
%TD*%
D12*
%TO.C,D22*%
X69849999Y-75337499D03*
D13*
X69850000Y-67537500D03*
%TD*%
D10*
%TO.C,MX28*%
X171132500Y-71437500D03*
D11*
X176212500Y-71437500D03*
D10*
X181292500Y-71437500D03*
%TD*%
D12*
%TO.C,D14*%
X103187499Y-56287499D03*
D13*
X103187500Y-48487500D03*
%TD*%
D10*
%TO.C,MX21*%
X33020000Y-71437500D03*
D11*
X38100000Y-71437500D03*
D10*
X43180000Y-71437500D03*
%TD*%
D12*
%TO.C,D2*%
X60324999Y-37237499D03*
D13*
X60325000Y-29437500D03*
%TD*%
D10*
%TO.C,MX34*%
X199707500Y-33337500D03*
D11*
X204787500Y-33337500D03*
D10*
X209867500Y-33337500D03*
%TD*%
%TO.C,MX8*%
X161607500Y-33337500D03*
D11*
X166687500Y-33337500D03*
D10*
X171767500Y-33337500D03*
%TD*%
D12*
%TO.C,D1*%
X41274999Y-37237499D03*
D13*
X41275000Y-29437500D03*
%TD*%
D12*
%TO.C,D10*%
X196849999Y-37237499D03*
D13*
X196850000Y-29437500D03*
%TD*%
D12*
%TO.C,D7*%
X155574999Y-37237499D03*
D13*
X155575000Y-29437500D03*
%TD*%
D18*
%TO.C,REF\u002A\u002A*%
X23558500Y-27146250D03*
X23558500Y-25876250D03*
X23558500Y-24606250D03*
X23558500Y-23336250D03*
X23558500Y-22066250D03*
%TD*%
D12*
%TO.C,D3*%
X79374999Y-37237499D03*
D13*
X79375000Y-29437500D03*
%TD*%
D10*
%TO.C,MX6*%
X123507500Y-33337500D03*
D11*
X128587500Y-33337500D03*
D10*
X133667500Y-33337500D03*
%TD*%
D14*
%TO.C,S1*%
X111918750Y-97472500D03*
D11*
X111918750Y-82232500D03*
D14*
X88106250Y-97472500D03*
D11*
X88106250Y-82232500D03*
%TD*%
D12*
%TO.C,D13*%
X84137499Y-56287499D03*
D13*
X84137500Y-48487500D03*
%TD*%
D19*
%TO.C,H2*%
X209550000Y-24606250D03*
%TD*%
%TO.C,H4*%
X126206250Y-97631250D03*
%TD*%
%TO.C,H5*%
X226218750Y-78581250D03*
%TD*%
%TO.C,H1*%
X42862500Y-24606250D03*
%TD*%
%TO.C,H3*%
X26193750Y-78581250D03*
%TD*%
D20*
%TO.C,RZ1*%
X101417499Y-23177499D03*
X101417499Y-25717499D03*
X101417499Y-28257499D03*
X101417499Y-30797499D03*
X101417499Y-33337499D03*
X101417499Y-35877499D03*
X101417499Y-38417499D03*
X101417499Y-40957499D03*
X101417499Y-43497499D03*
D21*
X104457499Y-43997499D03*
X106997499Y-43997499D03*
X109537499Y-43997499D03*
X112077499Y-43997499D03*
X114617499Y-43997499D03*
D20*
X117657499Y-43497499D03*
X117657499Y-40957499D03*
X117657499Y-38417499D03*
X117657499Y-35877499D03*
X117657499Y-33337499D03*
X117657499Y-30797499D03*
X117657499Y-28257499D03*
X117657499Y-25717499D03*
X117657499Y-23177499D03*
%TD*%
M02*
