M48
; DRILL file {KiCad (7.0.0)} date Thu Aug 24 19:01:00 2023
; FORMAT={-:-/ absolute / inch / decimal}
; #@! TF.CreationDate,2023-08-24T19:01:00+02:00
; #@! TF.GenerationSoftware,Kicad,Pcbnew,(7.0.0)
; #@! TF.FileFunction,Plated,1,2,PTH
FMAT,2
INCH
; #@! TA.AperFunction,Plated,PTH,ComponentDrill
T1C0.0394
; #@! TA.AperFunction,Plated,PTH,ComponentDrill
T2C0.0600
%
G90
G05
T1
X1.625Y-1.159
X1.625Y-1.466
X1.7188Y-1.909
X1.7188Y-2.216
X1.8125Y-2.659
X1.8125Y-2.966
X2.375Y-1.159
X2.375Y-1.466
X2.5625Y-1.909
X2.5625Y-2.216
X2.75Y-2.659
X2.75Y-2.966
X3.0312Y-3.409
X3.0312Y-3.716
X3.125Y-1.159
X3.125Y-1.466
X3.3125Y-1.909
X3.3125Y-2.216
X3.5Y-2.659
X3.5Y-2.966
X3.875Y-1.159
X3.875Y-1.466
X4.0125Y-0.9125
X4.0125Y-1.0125
X4.0125Y-1.1125
X4.0125Y-1.2125
X4.0125Y-1.3125
X4.0125Y-1.4125
X4.0125Y-1.5125
X4.0125Y-1.6125
X4.0125Y-1.7125
X4.0625Y-1.909
X4.0625Y-2.216
X4.1125Y-1.7125
X4.2125Y-1.7125
X4.25Y-2.659
X4.25Y-2.966
X4.25Y-3.409
X4.25Y-3.716
X4.3125Y-1.7125
X4.4125Y-1.7125
X4.5125Y-1.7125
X4.6125Y-0.9125
X4.6125Y-1.0125
X4.6125Y-1.1125
X4.6125Y-1.2125
X4.6125Y-1.3125
X4.6125Y-1.4125
X4.6125Y-1.5125
X4.6125Y-1.6125
X4.6125Y-1.7125
X4.75Y-1.159
X4.75Y-1.466
X4.8125Y-1.909
X4.8125Y-2.216
X5.0Y-2.659
X5.0Y-2.966
X5.375Y-1.159
X5.375Y-1.466
X5.5625Y-1.9117
X5.5625Y-2.2188
X5.75Y-2.659
X5.75Y-2.966
X6.0312Y-3.409
X6.0312Y-3.716
X6.125Y-1.159
X6.125Y-1.466
X6.3125Y-1.909
X6.3125Y-2.216
X6.5Y-2.659
X6.5Y-2.966
X6.875Y-1.159
X6.875Y-1.466
X7.0625Y-1.909
X7.0625Y-2.216
X7.25Y-2.659
X7.25Y-2.966
X7.5312Y-3.409
X7.5312Y-3.716
X7.625Y-1.159
X7.625Y-1.466
X7.75Y-1.159
X7.75Y-1.466
X7.8125Y-1.9163
X7.8125Y-2.2234
X8.0Y-2.659
X8.0Y-2.966
X8.3465Y-3.0938
X8.5652Y-1.6875
X8.6203Y-1.0172
X8.6203Y-1.5881
X8.6535Y-3.0938
X8.7188Y-1.0172
X8.8172Y-1.0172
X8.8172Y-1.5881
X8.8438Y-2.284
X8.8438Y-2.591
X8.8723Y-1.6875
T2
X1.1625Y-1.2125
X1.2562Y-1.9625
X1.35Y-2.7125
X1.4125Y-1.1125
X1.5062Y-1.8625
X1.6Y-2.6125
X1.9125Y-1.2125
X2.1Y-1.9625
X2.1625Y-1.1125
X2.2875Y-2.7125
X2.35Y-1.8625
X2.5375Y-2.6125
X2.5688Y-3.4625
X2.6625Y-1.2125
X2.8188Y-3.3625
X2.85Y-1.9625
X2.9125Y-1.1125
X3.0375Y-2.7125
X3.1Y-1.8625
X3.2875Y-2.6125
X3.4125Y-1.2125
X3.6Y-1.9625
X3.6625Y-1.1125
X3.7875Y-2.7125
X3.7875Y-3.4625
X3.85Y-1.8625
X4.0375Y-2.6125
X4.0375Y-3.3625
X4.1625Y-1.2125
X4.35Y-1.9625
X4.4125Y-1.1125
X4.5375Y-2.7125
X4.6Y-1.8625
X4.7875Y-2.6125
X4.9125Y-1.2125
X5.1Y-1.9625
X5.1625Y-1.1125
X5.2875Y-2.7125
X5.2875Y-3.4625
X5.35Y-1.8625
X5.5375Y-2.6125
X5.5375Y-3.3625
X5.5687Y-3.4625
X5.6625Y-1.2125
X5.8187Y-3.3625
X5.85Y-1.9625
X5.9125Y-1.1125
X6.0375Y-2.7125
X6.1Y-1.8625
X6.2875Y-2.6125
X6.4125Y-1.2125
X6.6Y-1.9625
X6.6625Y-1.1125
X6.7875Y-2.7125
X6.85Y-1.8625
X7.0375Y-2.6125
X7.0687Y-3.4625
X7.1625Y-1.2125
X7.3187Y-3.3625
X7.35Y-1.9625
X7.4125Y-1.1125
X7.5375Y-2.7125
X7.6Y-1.8625
X7.7875Y-2.6125
X7.9125Y-1.2125
X8.1625Y-1.1125
X8.1937Y-1.2125
X8.2875Y-1.9625
X8.3812Y-2.3375
X8.3812Y-2.7125
X8.4437Y-1.1125
X8.5375Y-1.8625
X8.6312Y-2.2375
X8.6312Y-2.6125
T0
M30
